<svg width="16" height="16" viewBox="0 0 16 16" fill="none" xmlns="http://www.w3.org/2000/svg">
<path fill-rule="evenodd" clip-rule="evenodd" d="M8 1.12433e-06C3.58461 1.12433e-06 0 3.58461 0 8C0 12.4154 3.58461 16 8 16C12.4154 16 16 12.4154 16 8C16 3.58461 12.4154 1.12433e-06 8 1.12433e-06ZM6.93333 4.2816V8.78598C6.93333 9.02551 7.09333 9.23563 7.32428 9.30015L10.3786 10.147C10.6623 10.226 10.9567 10.0595 11.0352 9.77585C11.1141 9.49216 10.9477 9.19823 10.664 9.1193L7.99991 8.38062V4.28157C7.99991 3.98716 7.76098 3.74824 7.46658 3.74824C7.17217 3.74824 6.93333 3.9872 6.93333 4.2816Z" fill="#16A34A"/>
</svg>
