<svg width="24" height="24" viewBox="0 0 24 24" fill="none" xmlns="http://www.w3.org/2000/svg">
<path d="M11.9144 21.4329C14.416 21.4329 16.8152 20.4391 18.5841 18.6702C20.3529 16.9013 21.3467 14.5022 21.3467 12.0006C21.3467 9.49903 20.3529 7.0999 18.5841 5.33101C16.8152 3.56211 14.416 2.56836 11.9144 2.56836C9.41285 2.56836 7.01372 3.56211 5.24482 5.33101C3.47593 7.0999 2.48218 9.49903 2.48218 12.0006C2.48218 14.5022 3.47593 16.9013 5.24482 18.6702C7.01372 20.4391 9.41285 21.4329 11.9144 21.4329Z" stroke="#2563EB" stroke-width="1.5" stroke-linecap="round" stroke-linejoin="round"/>
<path d="M8.93582 14.4162C8.99917 15.1469 9.34669 15.8235 9.90369 16.3007C10.4607 16.7779 11.1827 17.0174 11.9144 16.9679C14.3172 16.9679 14.893 15.5878 14.893 14.4162C14.893 13.2446 13.9002 12.0035 11.9144 12.0035C9.92869 12.0035 8.93582 11.2191 8.93582 9.62062C8.95434 9.25287 9.04705 8.89267 9.20837 8.56168C9.36969 8.23069 9.59629 7.93575 9.87454 7.6946C10.1528 7.45345 10.4769 7.27107 10.8275 7.15843C11.1781 7.04579 11.5478 7.00522 11.9144 7.03916C12.6467 7.00763 13.3632 7.25751 13.9171 7.73753C14.471 8.21755 14.8202 8.89132 14.893 9.62062M11.9144 18.4542V17.1635M11.9144 5.54688V7.03519" stroke="#2563EB" stroke-width="1.5" stroke-linecap="round" stroke-linejoin="round"/>
</svg>
