<svg width="22" height="17" viewBox="0 0 22 17" fill="none" xmlns="http://www.w3.org/2000/svg">
<path d="M13 0H9.00002C8.40002 0 7.90002 0.425 7.77502 1H14.225C14.1 0.425 13.6 0 13 0Z" fill="#302253"/>
<path d="M19.25 1.5H14.5H7.50002H2.75002C1.87502 1.5 1.15002 2.15 1.02502 3H21C20.85 2.15 20.125 1.5 19.25 1.5Z" fill="#302253"/>
<path d="M21.5 3.5H21.25H0.75H0.5C0.225 3.5 0 3.725 0 4C0 4.275 0.225 4.5 0.5 4.5H21.5C21.775 4.5 22 4.275 22 4C22 3.725 21.775 3.5 21.5 3.5Z" fill="#302253"/>
<path d="M1.175 15.65C1.2 16.4 1.825 17 2.6 17H4.7C5.125 17 5.525 16.8 5.8 16.475C6.175 16.025 6.7 15.75 7.3 15.75H14.7C15.275 15.75 15.825 16 16.2 16.475C16.475 16.825 16.875 17 17.3 17H19.4C20.15 17 20.775 16.4 20.825 15.65L21.25 5H0.75L1.175 15.65Z" fill="#302253"/>
</svg>
