<svg width="40" height="40" viewBox="0 0 40 40" fill="none" xmlns="http://www.w3.org/2000/svg">
<path d="M11.6667 24.9987H6.66667C6.22464 24.9987 5.80072 24.8231 5.48816 24.5105C5.17559 24.198 5 23.7741 5 23.332V9.9987C5 9.55667 5.17559 9.13275 5.48816 8.82019C5.80072 8.50763 6.22464 8.33203 6.66667 8.33203H26.6667C27.1087 8.33203 27.5326 8.50763 27.8452 8.82019C28.1577 9.13275 28.3333 9.55667 28.3333 9.9987V14.9987" stroke="#16A34A" stroke-width="2.5" stroke-linecap="round" stroke-linejoin="round"/>
<path d="M11.666 16.6667C11.666 16.2246 11.8416 15.8007 12.1542 15.4882C12.4667 15.1756 12.8907 15 13.3327 15H33.3327C33.7747 15 34.1986 15.1756 34.5112 15.4882C34.8238 15.8007 34.9993 16.2246 34.9993 16.6667V30C34.9993 30.442 34.8238 30.866 34.5112 31.1785C34.1986 31.4911 33.7747 31.6667 33.3327 31.6667H13.3327C12.8907 31.6667 12.4667 31.4911 12.1542 31.1785C11.8416 30.866 11.666 30.442 11.666 30V16.6667Z" stroke="#16A34A" stroke-width="2.5" stroke-linecap="round" stroke-linejoin="round"/>
<path d="M20 23.3333C20 24.2174 20.3512 25.0652 20.9763 25.6904C21.6014 26.3155 22.4493 26.6667 23.3333 26.6667C24.2174 26.6667 25.0652 26.3155 25.6904 25.6904C26.3155 25.0652 26.6667 24.2174 26.6667 23.3333C26.6667 22.4493 26.3155 21.6014 25.6904 20.9763C25.0652 20.3512 24.2174 20 23.3333 20C22.4493 20 21.6014 20.3512 20.9763 20.9763C20.3512 21.6014 20 22.4493 20 23.3333Z" stroke="#16A34A" stroke-width="2.5" stroke-linecap="round" stroke-linejoin="round"/>
</svg>
