<svg width="32" height="32" viewBox="0 0 32 32" fill="none" xmlns="http://www.w3.org/2000/svg">
<path d="M8.825 18.1208L1.925 11.2368C-0.641667 8.65145 -0.641667 4.48611 1.925 1.91811L13.4797 13.4408L8.825 18.1208ZM17.5597 17.5608L28.9063 28.8808L26.5597 31.2008L15.253 19.8941L3.917 31.2008L1.59567 28.8808L17.493 12.9861L17.1597 12.6234C16.8549 12.3199 16.6131 11.9592 16.448 11.562C16.283 11.1648 16.1981 10.7389 16.1981 10.3088C16.1981 9.87866 16.283 9.45277 16.448 9.05555C16.6131 8.65834 16.8549 8.29763 17.1597 7.99411L24.3063 0.800781L25.8263 2.31411L20.5063 7.67945L22.0797 9.22745L27.3997 3.87811L28.933 5.39278L23.5863 10.7261L25.1197 12.3114L30.493 6.95545L31.9997 8.50345L24.7997 15.6408C23.533 16.9208 21.453 16.9208 20.1863 15.6408L19.8263 15.3074L17.5597 17.5608Z" fill="#F3CA60"/>
</svg>
