<svg width="32" height="32" viewBox="0 0 32 32" fill="none" xmlns="http://www.w3.org/2000/svg">
<path d="M10.0007 14.6654C8.71176 14.6654 7.61176 14.2098 6.70065 13.2987C5.78954 12.3876 5.33398 11.2876 5.33398 9.9987C5.33398 8.70981 5.78954 7.60981 6.70065 6.6987C7.61176 5.78759 8.71176 5.33203 10.0007 5.33203C11.2895 5.33203 12.3895 5.78759 13.3007 6.6987C14.2118 7.60981 14.6673 8.70981 14.6673 9.9987C14.6673 11.2876 14.2118 12.3876 13.3007 13.2987C12.3895 14.2098 11.2895 14.6654 10.0007 14.6654ZM10.0007 11.9987C10.5562 11.9987 11.0287 11.8045 11.418 11.416C11.8073 11.0276 12.0015 10.5551 12.0007 9.9987C11.9998 9.44225 11.8055 8.97025 11.418 8.5827C11.0304 8.19514 10.558 8.00048 10.0007 7.9987C9.44332 7.99692 8.97132 8.19159 8.58465 8.5827C8.19798 8.97381 8.00332 9.44581 8.00065 9.9987C7.99798 10.5516 8.19265 11.024 8.58465 11.416C8.97665 11.808 9.44865 12.0023 10.0007 11.9987ZM22.0007 26.6654C20.7118 26.6654 19.6118 26.2098 18.7007 25.2987C17.7895 24.3876 17.334 23.2876 17.334 21.9987C17.334 20.7098 17.7895 19.6098 18.7007 18.6987C19.6118 17.7876 20.7118 17.332 22.0007 17.332C23.2895 17.332 24.3895 17.7876 25.3007 18.6987C26.2118 19.6098 26.6673 20.7098 26.6673 21.9987C26.6673 23.2876 26.2118 24.3876 25.3007 25.2987C24.3895 26.2098 23.2895 26.6654 22.0007 26.6654ZM22.0007 23.9987C22.5562 23.9987 23.0287 23.8045 23.418 23.416C23.8073 23.0276 24.0015 22.5551 24.0007 21.9987C23.9998 21.4423 23.8055 20.9703 23.418 20.5827C23.0304 20.1951 22.558 20.0005 22.0007 19.9987C21.4433 19.9969 20.9713 20.1916 20.5847 20.5827C20.198 20.9738 20.0033 21.4458 20.0007 21.9987C19.998 22.5516 20.1927 23.024 20.5847 23.416C20.9767 23.808 21.4487 24.0023 22.0007 23.9987ZM7.20065 26.6654L5.33398 24.7987L24.8007 5.33203L26.6673 7.1987L7.20065 26.6654Z" fill="#FBAF3F"/>
</svg>
