<svg width="40" height="40" viewBox="0 0 40 40" fill="none" xmlns="http://www.w3.org/2000/svg">
<path d="M5 8.75005C4.66848 8.75005 4.35054 8.88175 4.11612 9.11617C3.8817 9.35059 3.75 9.66853 3.75 10.0001C3.75 10.3316 3.8817 10.6495 4.11612 10.8839C4.35054 11.1184 4.66848 11.2501 5 11.2501H7.775L11.055 24.3751C11.3337 25.4876 12.33 26.2501 13.4762 26.2501H29.0637C30.1925 26.2501 31.1513 25.5001 31.4475 24.4126L34.6875 12.5001H32.07L29.0625 23.7501H13.475L10.1962 10.6251C10.0608 10.0866 9.74859 9.60915 9.3096 9.26919C8.8706 8.92924 8.33022 8.74643 7.775 8.75005H5ZM27.5 26.2501C25.4438 26.2501 23.75 27.9438 23.75 30.0001C23.75 32.0563 25.4438 33.7501 27.5 33.7501C29.5562 33.7501 31.25 32.0563 31.25 30.0001C31.25 27.9438 29.5562 26.2501 27.5 26.2501ZM16.25 26.2501C14.1938 26.2501 12.5 27.9438 12.5 30.0001C12.5 32.0563 14.1938 33.7501 16.25 33.7501C18.3062 33.7501 20 32.0563 20 30.0001C20 27.9438 18.3062 26.2501 16.25 26.2501ZM20 8.75005V15.0001H16.25L21.25 20.0001L26.25 15.0001H22.5V8.75005H20ZM16.25 28.7501C16.955 28.7501 17.5 29.2951 17.5 30.0001C17.5 30.7051 16.955 31.2501 16.25 31.2501C15.545 31.2501 15 30.7051 15 30.0001C15 29.2951 15.545 28.7501 16.25 28.7501ZM27.5 28.7501C28.205 28.7501 28.75 29.2951 28.75 30.0001C28.75 30.7051 28.205 31.2501 27.5 31.2501C26.795 31.2501 26.25 30.7051 26.25 30.0001C26.25 29.2951 26.795 28.7501 27.5 28.7501Z" fill="#2563EB"/>
</svg>
