<svg width="26" height="29" viewBox="0 0 26 29" fill="none" xmlns="http://www.w3.org/2000/svg">
<path fill-rule="evenodd" clip-rule="evenodd" d="M15 3H11C10.7347 3 10.4804 3.10536 10.2928 3.29289C10.1053 3.48043 9.99995 3.73478 9.99995 4V5H16V4C16 3.73478 15.8946 3.48043 15.7071 3.29289C15.5195 3.10536 15.2652 3 15 3ZM19 5V4C19 2.93913 18.5785 1.92172 17.8284 1.17157C17.0782 0.421427 16.0608 0 15 0H11C9.93909 0 8.92167 0.421427 8.17153 1.17157C7.42138 1.92172 6.99995 2.93913 6.99995 4V5H1.50195C1.10413 5 0.722597 5.15804 0.441293 5.43934C0.159988 5.72064 0.00195312 6.10218 0.00195312 6.5C0.00195312 6.89782 0.159988 7.27936 0.441293 7.56066C0.722597 7.84196 1.10413 8 1.50195 8H2.12595L2.75995 23.25C2.82446 24.7969 3.48442 26.2589 4.60187 27.3305C5.71931 28.4021 7.20773 29.0003 8.75595 29H17.246C18.7938 28.9998 20.2817 28.4014 21.3988 27.3299C22.5158 26.2583 23.1755 24.7965 23.24 23.25L23.876 8H24.5C24.8978 8 25.2793 7.84196 25.5606 7.56066C25.8419 7.27936 26 6.89782 26 6.5C26 6.10218 25.8419 5.72064 25.5606 5.43934C25.2793 5.15804 24.8978 5 24.5 5H19ZM20.872 8H5.12795L5.75795 23.124C5.78996 23.8976 6.11983 24.6289 6.67858 25.1649C7.23732 25.7009 7.98167 26.0001 8.75595 26H17.246C18.0199 25.9996 18.7637 25.7002 19.3221 25.1642C19.8804 24.6283 20.21 23.8973 20.242 23.124L20.872 8ZM8.49995 12V22C8.49995 22.3978 8.65799 22.7794 8.93929 23.0607C9.2206 23.342 9.60213 23.5 9.99995 23.5C10.3978 23.5 10.7793 23.342 11.0606 23.0607C11.3419 22.7794 11.5 22.3978 11.5 22V12C11.5 11.6022 11.3419 11.2206 11.0606 10.9393C10.7793 10.658 10.3978 10.5 9.99995 10.5C9.60213 10.5 9.2206 10.658 8.93929 10.9393C8.65799 11.2206 8.49995 11.6022 8.49995 12ZM16 10.5C16.3978 10.5 16.7793 10.658 17.0606 10.9393C17.3419 11.2206 17.5 11.6022 17.5 12V22C17.5 22.3978 17.3419 22.7794 17.0606 23.0607C16.7793 23.342 16.3978 23.5 16 23.5C15.6021 23.5 15.2206 23.342 14.9393 23.0607C14.658 22.7794 14.5 22.3978 14.5 22V12C14.5 11.6022 14.658 11.2206 14.9393 10.9393C15.2206 10.658 15.6021 10.5 16 10.5Z" fill="#EA580C"/>
</svg>
