<svg width="17" height="19" viewBox="0 0 17 19" fill="none" xmlns="http://www.w3.org/2000/svg">
<path d="M3.95005 18.8502C3.40397 18.8502 2.93666 18.6559 2.54812 18.2674C2.15957 17.8788 1.96497 17.4112 1.96431 16.8644V3.95712C1.683 3.95712 1.44735 3.86181 1.25739 3.67118C1.06742 3.48055 0.972101 3.24491 0.971439 2.96426C0.970777 2.6836 1.06609 2.44796 1.25739 2.25733C1.44868 2.0667 1.68432 1.97139 1.96431 1.97139H5.93579C5.93579 1.69007 6.0311 1.45443 6.22173 1.26446C6.41237 1.07449 6.64801 0.979178 6.92866 0.978516H10.9001C11.1815 0.978516 11.4174 1.07383 11.6081 1.26446C11.7987 1.45509 11.8937 1.69073 11.893 1.97139H15.8645C16.1458 1.97139 16.3818 2.0667 16.5724 2.25733C16.763 2.44796 16.858 2.6836 16.8574 2.96426C16.8567 3.24491 16.7614 3.48088 16.5714 3.67217C16.3814 3.86346 16.1458 3.95845 15.8645 3.95712V16.8644C15.8645 17.4105 15.6702 17.8782 15.2817 18.2674C14.8931 18.6566 14.4255 18.8508 13.8787 18.8502H3.95005ZM13.8787 3.95712H3.95005V16.8644H13.8787V3.95712ZM6.92866 14.8787C7.20997 14.8787 7.44594 14.7834 7.63657 14.5927C7.82721 14.4021 7.92219 14.1665 7.92153 13.8858V6.93573C7.92153 6.65442 7.82621 6.41878 7.63558 6.22881C7.44495 6.03884 7.20931 5.94353 6.92866 5.94286C6.64801 5.9422 6.41237 6.03752 6.22173 6.22881C6.0311 6.4201 5.93579 6.65575 5.93579 6.93573V13.8858C5.93579 14.1671 6.0311 14.4031 6.22173 14.5937C6.41237 14.7844 6.64801 14.8794 6.92866 14.8787ZM10.9001 14.8787C11.1815 14.8787 11.4174 14.7834 11.6081 14.5927C11.7987 14.4021 11.8937 14.1665 11.893 13.8858V6.93573C11.893 6.65442 11.7977 6.41878 11.6071 6.22881C11.4164 6.03884 11.1808 5.94353 10.9001 5.94286C10.6195 5.9422 10.3838 6.03752 10.1932 6.22881C10.0026 6.4201 9.90727 6.65575 9.90727 6.93573V13.8858C9.90727 14.1671 10.0026 14.4031 10.1932 14.5937C10.3838 14.7844 10.6195 14.8794 10.9001 14.8787Z" fill="#FF383C"/>
</svg>
