<svg width="17" height="18" viewBox="0 0 17 18" fill="none" xmlns="http://www.w3.org/2000/svg">
<path d="M9.24058 10.0286V0.947368C9.24058 0.424156 8.8426 0 8.35169 0C7.86077 0 7.4628 0.424156 7.4628 0.947368V10.0286L4.53578 6.90906C4.18865 6.53908 3.62584 6.53908 3.27871 6.90906C2.93156 7.27903 2.93156 7.87887 3.27871 8.24883L8.35169 13.6556L13.4248 8.24883C13.7718 7.87887 13.7718 7.27903 13.4248 6.90906C13.0776 6.5391 12.5147 6.5391 12.1675 6.90906L9.24058 10.0286Z" fill="#A7A7A7"/>
<path d="M1.24057 12.3158C1.73149 12.3158 2.12946 12.7399 2.12946 13.2632V14.7789C2.12946 15.5115 2.68662 16.1053 3.37391 16.1053H13.3295C14.0168 16.1053 14.5739 15.5115 14.5739 14.7789V13.2632C14.5739 12.7399 14.972 12.3158 15.4628 12.3158C15.9536 12.3158 16.3517 12.7399 16.3517 13.2632V14.7789C16.3517 16.5579 14.9986 18 13.3295 18H3.37391C1.70479 18 0.351685 16.5579 0.351685 14.7789V13.2632C0.351685 12.7399 0.749658 12.3158 1.24057 12.3158Z" fill="#A7A7A7"/>
</svg>
