<svg width="20" height="14" viewBox="0 0 20 14" fill="none" xmlns="http://www.w3.org/2000/svg">
<path d="M10 10C11.6569 10 13 8.65685 13 7C13 5.34315 11.6569 4 10 4C8.34315 4 7 5.34315 7 7C7 8.65685 8.34315 10 10 10Z" stroke="#A7A7A7" stroke-width="2"/>
<path d="M18.188 5.934C18.576 6.406 18.77 6.641 18.77 7C18.77 7.359 18.576 7.594 18.188 8.066C16.768 9.79 13.636 13 9.99998 13C6.36398 13 3.23198 9.79 1.81198 8.066C1.42398 7.594 1.22998 7.359 1.22998 7C1.22998 6.641 1.42398 6.406 1.81198 5.934C3.23198 4.21 6.36398 1 9.99998 1C13.636 1 16.768 4.21 18.188 5.934Z" stroke="#A7A7A7" stroke-width="2"/>
</svg>
