<svg width="22" height="20" viewBox="0 0 22 20" fill="none" xmlns="http://www.w3.org/2000/svg">
<path d="M2 8V17C2 17.5304 2.21071 18.0391 2.58579 18.4142C2.96086 18.7893 3.46957 19 4 19H18C18.5304 19 19.0391 18.7893 19.4142 18.4142C19.7893 18.0391 20 17.5304 20 17V8" stroke="#FBAF3F" stroke-width="1.5"/>
<path d="M13.833 19V13C13.833 12.4696 13.6223 11.9609 13.2472 11.5858C12.8721 11.2107 12.3634 11 11.833 11H9.83301C9.30257 11 8.79387 11.2107 8.41879 11.5858C8.04372 11.9609 7.83301 12.4696 7.83301 13V19" stroke="#FBAF3F" stroke-width="1.5" stroke-miterlimit="16"/>
<path d="M20.818 7.364L19.124 1.435C19.0881 1.30965 19.0124 1.19939 18.9083 1.1209C18.8042 1.04241 18.6774 0.999971 18.547 1H14.5L14.975 6.704C14.9823 6.79568 15.0114 6.88429 15.0597 6.96254C15.1081 7.04078 15.1743 7.10641 15.253 7.154C15.643 7.387 16.405 7.817 17 8C18.016 8.313 19.5 8.2 20.346 8.096C20.4282 8.08537 20.5072 8.05692 20.5773 8.01263C20.6474 7.96835 20.707 7.90929 20.752 7.8396C20.7969 7.7699 20.8261 7.69123 20.8375 7.60909C20.8489 7.52695 20.8423 7.44331 20.818 7.364Z" stroke="#FBAF3F" stroke-width="1.5"/>
<path d="M13.0002 8C13.5682 7.825 14.2882 7.426 14.6902 7.188C14.7837 7.13205 14.8596 7.05087 14.9091 6.95377C14.9587 6.85667 14.9798 6.74757 14.9702 6.639L14.5002 1H7.50019L7.03019 6.639C7.02036 6.74774 7.04143 6.85704 7.09096 6.95433C7.14049 7.05163 7.21648 7.13297 7.31019 7.189C7.71219 7.426 8.43219 7.825 9.00019 8C10.4932 8.46 11.5072 8.46 13.0002 8Z" stroke="#FBAF3F" stroke-width="1.5"/>
<path d="M2.87605 1.435L1.18205 7.365C1.15814 7.44418 1.15175 7.52762 1.16332 7.60951C1.17489 7.69141 1.20414 7.76981 1.24905 7.83927C1.29396 7.90873 1.35345 7.96758 1.42339 8.01174C1.49332 8.0559 1.57203 8.08431 1.65405 8.095C2.49905 8.2 3.98405 8.312 5.00005 8C5.59505 7.817 6.35805 7.387 6.74705 7.155C6.82588 7.10731 6.89221 7.04153 6.94056 6.9631C6.9889 6.88467 7.01786 6.79585 7.02505 6.704L7.50005 1H3.45305C3.32267 0.999971 3.19583 1.04241 3.09172 1.1209C2.98762 1.19939 2.91191 1.30965 2.87605 1.435Z" stroke="#FBAF3F" stroke-width="1.5"/>
</svg>
