<svg width="17" height="16" viewBox="0 0 17 16" fill="none" xmlns="http://www.w3.org/2000/svg">
<g clip-path="url(#clip0_360_79)">
<path d="M2.74626 6.66675C2.13159 6.66675 1.41292 6.05808 1.41292 5.33341V4.66675C1.41826 4.48364 1.77114 4.02408 2.47159 3.28808C2.65845 3.0917 2.88329 2.93536 3.13243 2.82855C3.38158 2.72174 3.64984 2.66669 3.92092 2.66675H12.2383C12.5093 2.66669 12.7776 2.72174 13.0267 2.82855C13.2759 2.93536 13.5007 3.0917 13.6876 3.28808C14.3876 4.02408 14.7405 4.48364 14.7463 4.66675V5.33341C14.7463 6.05808 14.0276 6.66675 13.4129 6.66675M2.74626 6.66675C3.48426 6.66675 4.07959 6.06008 4.07959 5.33341C4.07959 6.06008 4.67492 6.66675 5.41292 6.66675C6.15092 6.66675 6.74625 6.06008 6.74625 5.33341C6.74625 6.06008 7.34159 6.66675 8.07959 6.66675C8.81759 6.66675 9.41292 6.06008 9.41292 5.33341C9.41292 6.06008 10.0083 6.66675 10.7463 6.66675C11.4843 6.66675 12.0796 6.06008 12.0796 5.33341C12.0796 6.06008 12.6749 6.66675 13.4129 6.66675M2.74626 6.66675C2.66803 10.8534 2.84892 13.177 3.28892 13.6374C4.31159 13.8821 6.19225 13.9941 8.07959 13.9947C9.96625 13.9941 11.8476 13.8821 12.8703 13.6374C13.5303 12.9461 13.4689 7.26475 13.4129 6.66675" stroke="white" stroke-linecap="round" stroke-linejoin="round"/>
<path d="M6.74625 10.6668L8.07959 9.3335M8.07959 9.3335L9.41292 10.6668M8.07959 9.3335V12.0002" stroke="white" stroke-linecap="round" stroke-linejoin="round"/>
</g>
<defs>
<clipPath id="clip0_360_79">
<rect width="16" height="16" fill="white" transform="translate(0.0795898)"/>
</clipPath>
</defs>
</svg>
