<svg width="17" height="16" viewBox="0 0 17 16" fill="none" xmlns="http://www.w3.org/2000/svg">
<path d="M2.55292 3.6H12.6956C13.6143 3.6 14.2776 4.44667 14.0256 5.29867L12.9229 9.032C12.7529 9.60533 12.2103 10 11.5929 10H5.48759C4.86959 10 4.32626 9.60467 4.15692 9.032L2.55292 3.6ZM2.55292 3.6L2.07959 2M11.0796 14C11.3448 14 11.5992 13.8946 11.7867 13.7071C11.9742 13.5196 12.0796 13.2652 12.0796 13C12.0796 12.7348 11.9742 12.4804 11.7867 12.2929C11.5992 12.1054 11.3448 12 11.0796 12C10.8144 12 10.56 12.1054 10.3725 12.2929C10.1849 12.4804 10.0796 12.7348 10.0796 13C10.0796 13.2652 10.1849 13.5196 10.3725 13.7071C10.56 13.8946 10.8144 14 11.0796 14ZM5.74626 14C6.01147 14 6.26583 13.8946 6.45336 13.7071C6.6409 13.5196 6.74626 13.2652 6.74626 13C6.74626 12.7348 6.6409 12.4804 6.45336 12.2929C6.26583 12.1054 6.01147 12 5.74626 12C5.48104 12 5.22669 12.1054 5.03915 12.2929C4.85161 12.4804 4.74626 12.7348 4.74626 13C4.74626 13.2652 4.85161 13.5196 5.03915 13.7071C5.22669 13.8946 5.48104 14 5.74626 14Z" stroke="white" stroke-linecap="round" stroke-linejoin="round"/>
</svg>
