<svg width="17" height="16" viewBox="0 0 17 16" fill="none" xmlns="http://www.w3.org/2000/svg">
<path d="M3.57959 3C3.57959 2.73478 3.68495 2.48043 3.87248 2.29289C4.06002 2.10536 4.31437 2 4.57959 2H11.5796C11.8448 2 12.0992 2.10536 12.2867 2.29289C12.4742 2.48043 12.5796 2.73478 12.5796 3V12H3.57959V3ZM4.57959 14C4.31437 14 4.06002 13.8946 3.87248 13.7071C3.68495 13.5196 3.57959 13.2652 3.57959 13H12.7046C12.9367 13 13.1592 12.9078 13.3233 12.7437C13.4874 12.5796 13.5796 12.3571 13.5796 12.125V3C13.5796 2.46957 13.3689 1.96086 12.9938 1.58579C12.6187 1.21071 12.11 1 11.5796 1H4.57959C4.04916 1 3.54045 1.21071 3.16538 1.58579C2.7903 1.96086 2.57959 2.46957 2.57959 3V13C2.57959 13.5304 2.7903 14.0391 3.16538 14.4142C3.54045 14.7893 4.04916 15 4.57959 15H13.0796C13.2122 15 13.3394 14.9473 13.4331 14.8536C13.5269 14.7598 13.5796 14.6326 13.5796 14.5C13.5796 14.3674 13.5269 14.2402 13.4331 14.1464C13.3394 14.0527 13.2122 14 13.0796 14H4.57959ZM5.45459 3C5.22253 3 4.99997 3.09219 4.83587 3.25628C4.67178 3.42038 4.57959 3.64294 4.57959 3.875V5.125C4.57959 5.608 4.97159 6 5.45459 6H10.7046C10.9367 6 11.1592 5.90781 11.3233 5.74372C11.4874 5.57962 11.5796 5.35706 11.5796 5.125V3.875C11.5796 3.64294 11.4874 3.42038 11.3233 3.25628C11.1592 3.09219 10.9367 3 10.7046 3H5.45459ZM5.57959 5V4H10.5796V5H5.57959Z" fill="white"/>
</svg>
