<svg width="17" height="16" viewBox="0 0 17 16" fill="none" xmlns="http://www.w3.org/2000/svg">
<path d="M7.39959 3.12V5.70667C7.39891 6.02932 7.30269 6.34454 7.12306 6.61256C6.94342 6.88058 6.68844 7.0894 6.39026 7.21267C6.19242 7.29421 5.98023 7.33524 5.76626 7.33333H3.18626C2.756 7.33157 2.34396 7.15941 2.04034 6.85454C1.73672 6.54967 1.56625 6.13693 1.56626 5.70667V3.12667C1.56625 2.6964 1.73672 2.28366 2.04034 1.97879C2.34396 1.67392 2.756 1.50176 3.18626 1.5H5.76626C6.19746 1.50264 6.61085 1.6723 6.91959 1.97333C7.22386 2.27776 7.39626 2.6896 7.39959 3.12ZM14.5663 3.12667V5.70667C14.5654 6.13626 14.3954 6.54823 14.0929 6.85333C13.9439 7.00641 13.7656 7.12782 13.5686 7.2103C13.3715 7.29278 13.1599 7.33463 12.9463 7.33333H10.3863C9.95506 7.33069 9.54166 7.16104 9.23292 6.86C9.08207 6.70833 8.9626 6.52838 8.88138 6.33048C8.80016 6.13257 8.75878 5.92059 8.75959 5.70667V3.12667C8.75905 2.91318 8.80124 2.70174 8.88368 2.50481C8.96612 2.30788 9.08713 2.12944 9.23959 1.98C9.38948 1.82814 9.56801 1.70752 9.76484 1.62513C9.96167 1.54274 10.1729 1.50021 10.3863 1.5H12.9663C13.3966 1.50348 13.8083 1.67598 14.1126 1.98029C14.4169 2.2846 14.5894 2.69633 14.5929 3.12667H14.5663ZM7.39959 10.3V12.88C7.39872 13.0936 7.35578 13.305 7.27322 13.502C7.19067 13.699 7.07011 13.8778 6.91844 14.0283C6.76677 14.1787 6.58696 14.2978 6.38927 14.3787C6.19157 14.4597 5.97988 14.5009 5.76626 14.5H3.18626C2.75666 14.4992 2.34469 14.3291 2.03959 14.0267C1.88833 13.8767 1.76855 13.698 1.68727 13.5011C1.60599 13.3042 1.56485 13.093 1.56626 12.88V10.3C1.56485 10.087 1.60599 9.87583 1.68727 9.67893C1.76855 9.48202 1.88833 9.30333 2.03959 9.15333C2.34293 8.84662 2.75491 8.67177 3.18626 8.66667H5.76626C6.1989 8.66842 6.61333 8.84107 6.91926 9.147C7.22519 9.45293 7.39784 9.86735 7.39959 10.3ZM14.5196 11.5933C14.5179 11.7254 14.4646 11.8516 14.3712 11.945C14.2778 12.0384 14.1517 12.0916 14.0196 12.0933H12.1396V13.96C12.1396 14.0926 12.0869 14.2198 11.9931 14.3136C11.8994 14.4073 11.7722 14.46 11.6396 14.46C11.507 14.46 11.3798 14.4073 11.286 14.3136C11.1923 14.2198 11.1396 14.0926 11.1396 13.96V12.0933H9.27292C9.14032 12.0933 9.01314 12.0407 8.91937 11.9469C8.8256 11.8531 8.77292 11.7259 8.77292 11.5933C8.77292 11.4607 8.8256 11.3335 8.91937 11.2398C9.01314 11.146 9.14032 11.0933 9.27292 11.0933H11.1396V9.21333C11.1396 9.08073 11.1923 8.95355 11.286 8.85978C11.3798 8.76601 11.507 8.71333 11.6396 8.71333C11.7722 8.71333 11.8994 8.76601 11.9931 8.85978C12.0869 8.95355 12.1396 9.08073 12.1396 9.21333V11.0933H14.0196C14.1522 11.0933 14.2794 11.146 14.3731 11.2398C14.4669 11.3335 14.5196 11.4607 14.5196 11.5933Z" fill="white"/>
</svg>
