<svg width="17" height="16" viewBox="0 0 17 16" fill="none" xmlns="http://www.w3.org/2000/svg">
<g clip-path="url(#clip0_360_77)">
<path d="M5.12843 0.602539C5.44384 0.937977 5.65165 1.34248 5.771 1.77932C5.96481 2.48891 5.95243 3.28395 5.88725 4.09476C5.75675 5.71645 5.43162 7.42326 5.811 8.48248C6.16712 9.47666 6.73812 10.0672 7.37162 10.3575C7.64412 10.4824 7.931 10.5515 8.22118 10.5694C8.91478 8.53554 8.76681 5.93991 7.62556 4.18557C9.13656 5.69288 9.85025 7.96895 9.38918 10.3545L9.11481 10.4649C9.20047 10.4393 9.28487 10.4096 9.36771 10.376C10.6734 9.84882 11.7419 8.3056 11.2974 6.04304C11.0932 5.00351 10.3922 3.53788 9.21928 2.40241C8.20453 1.42016 6.84968 0.677039 5.1284 0.602602L5.12843 0.602539ZM14.0024 6.33795C13.9762 6.71607 13.8575 7.0732 13.6724 7.39754C13.3489 7.96441 12.8459 8.45245 12.3013 8.91607C11.212 9.84326 9.95575 10.7022 9.5415 11.5791C9.14915 12.4099 9.13887 13.1183 9.34818 13.6817C9.43762 13.9229 9.57144 14.1451 9.74271 14.337C11.4211 13.4999 12.9218 11.8085 13.2993 10.0235C13.3017 11.8875 12.3421 13.7325 10.5923 14.9269C11.7111 15.3814 13.2886 15.0842 14.396 13.4347C14.9091 12.6704 15.3822 11.3315 15.3589 9.90732C15.3391 8.69832 14.9757 7.43138 14.0024 6.33804L14.0024 6.33795ZM0.725089 8.63388C0.428745 10.0676 0.747214 11.3474 1.33446 12.4044C2.02621 13.6494 3.10578 14.5724 3.93212 14.9776C5.71556 15.8522 7.22943 15.3204 7.97118 14.3673C5.859 14.2079 4.10581 13.09 3.17631 11.4747C4.39568 12.8318 6.54062 13.5463 8.41262 13.4317C8.46529 13.18 8.47027 12.9207 8.42731 12.6671C8.32687 12.0744 7.96262 11.4656 7.20756 10.9425C6.41053 10.3903 4.89365 10.275 3.48684 10.0167C2.78346 9.88763 2.10412 9.71701 1.54059 9.38782C1.218 9.19938 0.937027 8.94845 0.725152 8.63391L0.725089 8.63388Z" fill="white"/>
</g>
<defs>
<clipPath id="clip0_360_77">
<rect width="16" height="16" fill="white" transform="translate(0.0795898)"/>
</clipPath>
</defs>
</svg>
