<svg width="17" height="16" viewBox="0 0 17 16" fill="none" xmlns="http://www.w3.org/2000/svg">
<g clip-path="url(#clip0_360_106)">
<path d="M12.0796 12.3334C12.6329 12.3334 13.0796 11.8867 13.0796 11.3334C13.0796 10.7801 12.6329 10.3334 12.0796 10.3334C11.5263 10.3334 11.0796 10.7801 11.0796 11.3334C11.0796 11.8867 11.5263 12.3334 12.0796 12.3334ZM13.0796 6.33341H11.4129V8.00008H14.3863L13.0796 6.33341ZM4.07959 12.3334C4.63292 12.3334 5.07959 11.8867 5.07959 11.3334C5.07959 10.7801 4.63292 10.3334 4.07959 10.3334C3.52626 10.3334 3.07959 10.7801 3.07959 11.3334C3.07959 11.8867 3.52626 12.3334 4.07959 12.3334ZM13.4129 5.33341L15.4129 8.00008V11.3334H14.0796C14.0796 12.4401 13.1863 13.3334 12.0796 13.3334C10.9729 13.3334 10.0796 12.4401 10.0796 11.3334H6.07959C6.07959 12.4401 5.18626 13.3334 4.07959 13.3334C2.97292 13.3334 2.07959 12.4401 2.07959 11.3334H0.746256V4.00008C0.746256 3.26008 1.33959 2.66675 2.07959 2.66675H11.4129V5.33341H13.4129ZM2.07959 4.00008V10.0001H2.58626C2.95292 9.59341 3.48626 9.33342 4.07959 9.33342C4.67292 9.33342 5.20626 9.59341 5.57292 10.0001H10.0796V4.00008H2.07959Z" fill="white"/>
</g>
<defs>
<clipPath id="clip0_360_106">
<rect width="16" height="16" fill="white" transform="translate(0.0795898)"/>
</clipPath>
</defs>
</svg>
