<svg width="17" height="13" viewBox="0 0 17 13" fill="none" xmlns="http://www.w3.org/2000/svg">
<g clip-path="url(#clip0_360_83)">
<path d="M1.01396 4.875H15.3927C15.9081 4.875 16.3271 4.45605 16.3271 3.94062C16.3271 3.75527 16.2712 3.575 16.1696 3.42266L14.2526 0.543359C14.0267 0.203125 13.6483 0 13.2396 0H3.16963C2.76338 0 2.38252 0.203125 2.15654 0.543359L0.237012 3.42012C0.135449 3.575 0.0795898 3.75527 0.0795898 3.93809C0.0795898 4.45605 0.498535 4.875 1.01396 4.875ZM1.70459 5.6875V11.7812C1.70459 12.4541 2.25049 13 2.92334 13H8.61084C9.28369 13 9.82959 12.4541 9.82959 11.7812V5.6875H8.20459V9.75H3.32959V5.6875H1.70459ZM13.0796 5.6875V12.1875C13.0796 12.6369 13.4427 13 13.8921 13C14.3415 13 14.7046 12.6369 14.7046 12.1875V5.6875H13.0796Z" fill="white"/>
</g>
<defs>
<clipPath id="clip0_360_83">
<rect width="16.25" height="13" fill="white" transform="translate(0.0795898)"/>
</clipPath>
</defs>
</svg>
