<svg width="17" height="16" viewBox="0 0 17 16" fill="none" xmlns="http://www.w3.org/2000/svg">
<path d="M8.07959 0.563232L14.5196 4.2819V11.7179L8.07959 15.4366L1.63959 11.7179V4.2819L8.07959 0.563232ZM8.07959 2.10323L2.97292 5.05123V10.9486L8.07959 13.8966L13.1863 10.9486V5.05123L8.07959 2.10323ZM8.07959 5.9999C7.54916 5.9999 7.04045 6.21061 6.66538 6.58568C6.2903 6.96076 6.07959 7.46947 6.07959 7.9999C6.07959 8.53033 6.2903 9.03904 6.66538 9.41411C7.04045 9.78918 7.54916 9.9999 8.07959 9.9999C8.61002 9.9999 9.11873 9.78918 9.4938 9.41411C9.86888 9.03904 10.0796 8.53033 10.0796 7.9999C10.0796 7.46947 9.86888 6.96076 9.4938 6.58568C9.11873 6.21061 8.61002 5.9999 8.07959 5.9999ZM4.74626 7.9999C4.74626 7.11584 5.09745 6.268 5.72257 5.64288C6.34769 5.01775 7.19554 4.66657 8.07959 4.66657C8.96365 4.66657 9.81149 5.01775 10.4366 5.64288C11.0617 6.268 11.4129 7.11584 11.4129 7.9999C11.4129 8.88395 11.0617 9.7318 10.4366 10.3569C9.81149 10.982 8.96365 11.3332 8.07959 11.3332C7.19554 11.3332 6.34769 10.982 5.72257 10.3569C5.09745 9.7318 4.74626 8.88395 4.74626 7.9999Z" fill="white"/>
</svg>
