<svg width="17" height="16" viewBox="0 0 17 16" fill="none" xmlns="http://www.w3.org/2000/svg">
<g clip-path="url(#clip0_360_85)">
<path d="M15.9733 6.74439L14.3783 3.55314C14.3196 3.43568 14.2383 3.33094 14.139 3.24492C14.0398 3.15889 13.9246 3.09325 13.8 3.05176C13.6754 3.01026 13.5438 2.99371 13.4128 3.00307C13.2818 3.01242 13.1539 3.04748 13.0365 3.10626L11.4821 3.88314L8.20771 3.01689C8.1237 2.99502 8.03548 2.99502 7.95146 3.01689L4.67709 3.88314L3.12271 3.10626C3.00527 3.04748 2.87739 3.01242 2.74639 3.00307C2.61538 2.99371 2.48382 3.01026 2.35922 3.05176C2.23461 3.09325 2.1194 3.15889 2.02016 3.24492C1.92092 3.33094 1.8396 3.43568 1.78084 3.55314L0.185839 6.74376C0.127062 6.86121 0.0919956 6.98909 0.0826434 7.12009C0.0732912 7.25109 0.0898361 7.38265 0.131333 7.50726C0.17283 7.63187 0.238467 7.74708 0.324495 7.84632C0.410522 7.94556 0.515256 8.02688 0.632714 8.08564L2.32021 8.93001L5.78834 11.4069C5.83947 11.4432 5.8969 11.4697 5.95771 11.485L9.95771 12.485C10.0415 12.506 10.1293 12.505 10.2125 12.482C10.2957 12.459 10.3716 12.4148 10.4327 12.3538L12.9327 9.85376L13.8752 8.91126L15.5265 8.08564C15.7635 7.96697 15.9438 7.75903 16.0276 7.50752C16.1113 7.25601 16.0918 6.98152 15.9733 6.74439ZM12.5427 8.83001L10.3921 7.10751C10.2957 7.03035 10.1743 6.99156 10.051 6.9986C9.9278 7.00564 9.81152 7.05801 9.72459 7.14564C8.61146 8.26689 7.37084 8.12501 6.57959 7.62501L9.28209 5.00001H11.2702L12.9708 8.40064L12.5427 8.83001ZM9.92584 11.4463L6.29334 10.5381L3.21834 8.34189L4.96834 4.84189L8.07959 4.01751L8.69209 4.17939L5.87959 6.90939L5.87459 6.91501C5.76872 7.02088 5.68797 7.14918 5.63831 7.29042C5.58864 7.43167 5.57133 7.58227 5.58765 7.7311C5.60397 7.87993 5.6535 8.0232 5.73258 8.15033C5.81167 8.27747 5.91829 8.38522 6.04459 8.46564C7.32959 9.28626 8.88021 9.15314 10.1015 8.15314L11.8296 9.54126L9.92584 11.4463ZM8.31834 13.6213C8.29133 13.7293 8.229 13.8253 8.14125 13.8939C8.0535 13.9625 7.94535 13.9999 7.83396 14C7.79288 14 7.75194 13.995 7.71209 13.985L5.10521 13.3331C5.04431 13.3181 4.98682 13.2916 4.93584 13.255L3.28896 12.0788C3.1877 11.9993 3.12101 11.8838 3.10278 11.7563C3.08455 11.6289 3.11618 11.4993 3.19108 11.3946C3.26599 11.2899 3.3784 11.2181 3.50491 11.1942C3.63141 11.1703 3.76227 11.1961 3.87021 11.2663L5.43959 12.3875L7.95459 13.015C8.08321 13.0472 8.19378 13.1291 8.262 13.2428C8.33021 13.3565 8.35048 13.4926 8.31834 13.6213Z" fill="white"/>
</g>
<defs>
<clipPath id="clip0_360_85">
<rect width="16" height="16" fill="white" transform="translate(0.0795898)"/>
</clipPath>
</defs>
</svg>
