<svg width="17" height="16" viewBox="0 0 17 16" fill="none" xmlns="http://www.w3.org/2000/svg">
<path d="M2.07959 3.33325H5.69959C5.91905 3.33328 6.13512 3.27915 6.32863 3.17565C6.52215 3.07214 6.68712 2.92247 6.80892 2.73992L7.35026 1.92659C7.47206 1.74403 7.63703 1.59436 7.83055 1.49086C8.02406 1.38736 8.24013 1.33322 8.45959 1.33325H11.4516C11.7315 1.33318 12.0044 1.42124 12.2315 1.58493C12.4586 1.74862 12.6285 1.97964 12.7169 2.24525L13.0796 3.33325M14.0796 3.33325H5.41292" stroke="white" stroke-linecap="round" stroke-linejoin="round"/>
<path d="M13.0796 3.33325L12.7463 7.66659M3.07959 3.33325L3.48292 10.3573C3.58559 12.0706 3.63759 12.9279 4.06559 13.5439C4.27692 13.8493 4.54959 14.1059 4.86559 14.2993C5.25359 14.5366 5.72159 14.6299 6.41292 14.6666M7.41292 10.3319L8.17026 11.3093C8.30782 10.7958 8.59571 10.3351 8.99698 9.98641C9.39825 9.63772 9.89457 9.41692 10.4222 9.35236C10.9499 9.2878 11.4848 9.38243 11.9583 9.62408C12.4318 9.86574 12.8223 10.2434 13.0796 10.7086M14.0796 13.6653L13.3223 12.6893C13.1858 13.1987 12.9013 13.6563 12.5048 14.0041C12.1082 14.3519 11.6175 14.5743 11.0945 14.6432C10.5716 14.7121 10.04 14.6243 9.56693 14.391C9.09388 14.1577 8.70063 13.7894 8.43692 13.3326" stroke="white" stroke-linecap="round" stroke-linejoin="round"/>
</svg>
