<svg width="48" height="48" viewBox="0 0 48 48" fill="none" xmlns="http://www.w3.org/2000/svg">
<path d="M0 6C0 2.68629 2.68629 0 6 0H42C45.3137 0 48 2.68629 48 6V42C48 45.3137 45.3137 48 42 48H6C2.68629 48 0 45.3137 0 42V6Z" fill="#FEF9C3"/>
<path d="M22.9805 16.68V20.56C22.9795 21.044 22.8352 21.5168 22.5657 21.9188C22.2963 22.3209 21.9138 22.6341 21.4665 22.819C21.1698 22.9413 20.8515 23.0029 20.5305 23H16.6605C16.0151 22.9974 15.3971 22.7391 14.9416 22.2818C14.4862 21.8245 14.2305 21.2054 14.2305 20.56V16.69C14.2305 16.0446 14.4862 15.4255 14.9416 14.9682C15.3971 14.5109 16.0151 14.2526 16.6605 14.25H20.5305C21.1773 14.254 21.7974 14.5084 22.2605 14.96C22.7169 15.4166 22.9755 16.0344 22.9805 16.68ZM33.7305 16.69V20.56C33.7293 21.2044 33.4742 21.8223 33.0205 22.28C32.7971 22.5096 32.5295 22.6917 32.234 22.8155C31.9384 22.9392 31.6209 23.0019 31.3005 23H27.4605C26.8137 22.996 26.1936 22.7416 25.7305 22.29C25.5042 22.0625 25.325 21.7926 25.2032 21.4957C25.0814 21.1989 25.0193 20.8809 25.0205 20.56V16.69C25.0197 16.3698 25.083 16.0526 25.2067 15.7572C25.3303 15.4618 25.5118 15.1942 25.7405 14.97C25.9654 14.7422 26.2332 14.5613 26.5284 14.4377C26.8236 14.3141 27.1405 14.2503 27.4605 14.25H31.3305C31.976 14.2552 32.5936 14.514 33.0501 14.9704C33.5065 15.4269 33.7653 16.0445 33.7705 16.69H33.7305ZM22.9805 27.45V31.32C22.9792 31.6404 22.9148 31.9575 22.791 32.253C22.6671 32.5485 22.4863 32.8168 22.2588 33.0424C22.0313 33.2681 21.7616 33.4467 21.465 33.5681C21.1685 33.6895 20.8509 33.7513 20.5305 33.75H16.6605C16.0161 33.7487 15.3982 33.4937 14.9405 33.04C14.7136 32.815 14.534 32.547 14.412 32.2516C14.2901 31.9563 14.2284 31.6395 14.2305 31.32V27.45C14.2284 27.1305 14.2901 26.8137 14.412 26.5184C14.534 26.223 14.7136 25.955 14.9405 25.73C15.3955 25.2699 16.0135 25.0077 16.6605 25H20.5305C21.1795 25.0026 21.8011 25.2616 22.26 25.7205C22.7189 26.1794 22.9779 26.801 22.9805 27.45ZM33.6605 29.39C33.6579 29.5881 33.5781 29.7774 33.438 29.9175C33.2979 30.0576 33.1086 30.1374 32.9105 30.14H30.0905V32.94C30.0905 33.1389 30.0115 33.3297 29.8709 33.4703C29.7302 33.611 29.5394 33.69 29.3405 33.69C29.1416 33.69 28.9508 33.611 28.8102 33.4703C28.6695 33.3297 28.5905 33.1389 28.5905 32.94V30.14H25.7905C25.5916 30.14 25.4008 30.061 25.2602 29.9203C25.1195 29.7797 25.0405 29.5889 25.0405 29.39C25.0405 29.1911 25.1195 29.0003 25.2602 28.8597C25.4008 28.719 25.5916 28.64 25.7905 28.64H28.5905V25.82C28.5905 25.6211 28.6695 25.4303 28.8102 25.2897C28.9508 25.149 29.1416 25.07 29.3405 25.07C29.5394 25.07 29.7302 25.149 29.8709 25.2897C30.0115 25.4303 30.0905 25.6211 30.0905 25.82V28.64H32.9105C33.1094 28.64 33.3002 28.719 33.4409 28.8597C33.5815 29.0003 33.6605 29.1911 33.6605 29.39Z" fill="#F3CA60"/>
</svg>
