<svg width="20" height="20" viewBox="0 0 20 20" fill="none" xmlns="http://www.w3.org/2000/svg">
<path d="M9.42 10.8212L12.955 7.28375C13.0712 7.16769 13.2092 7.07567 13.3609 7.01292C13.5127 6.95017 13.6754 6.91794 13.8396 6.91805C14.0039 6.91817 14.1665 6.95064 14.3182 7.0136C14.4699 7.07656 14.6077 7.16878 14.7238 7.285C14.8398 7.40122 14.9318 7.53916 14.9946 7.69095C15.0573 7.84273 15.0896 8.00539 15.0894 8.16963C15.0893 8.33388 15.0569 8.49649 14.9939 8.64819C14.9309 8.79988 14.8387 8.93769 14.7225 9.05375L10.3038 13.4725C10.1877 13.5888 10.0499 13.6811 9.89824 13.7441C9.74654 13.8071 9.5839 13.8396 9.41963 13.8397C9.25537 13.8398 9.09268 13.8076 8.94089 13.7448C8.7891 13.682 8.65117 13.5899 8.535 13.4738L5.885 10.8238C5.76553 10.7085 5.67021 10.5707 5.60459 10.4182C5.53898 10.2657 5.50438 10.1017 5.50282 9.93577C5.50126 9.7698 5.53277 9.60518 5.59552 9.45152C5.65826 9.29786 5.75098 9.15823 5.86826 9.04078C5.98554 8.92333 6.12504 8.83042 6.27861 8.76746C6.43219 8.7045 6.59676 8.67275 6.76274 8.67408C6.92871 8.6754 7.09276 8.70977 7.24531 8.77517C7.39786 8.84057 7.53586 8.9357 7.65125 9.055L9.42 10.8212ZM10 20C7.34784 20 4.8043 18.9464 2.92893 17.0711C1.05357 15.1957 0 12.6522 0 10C0 7.34784 1.05357 4.8043 2.92893 2.92893C4.8043 1.05357 7.34784 0 10 0C12.6522 0 15.1957 1.05357 17.0711 2.92893C18.9464 4.8043 20 7.34784 20 10C20 12.6522 18.9464 15.1957 17.0711 17.0711C15.1957 18.9464 12.6522 20 10 20ZM10 17.5C10.9849 17.5 11.9602 17.306 12.8701 16.9291C13.7801 16.5522 14.6069 15.9997 15.3033 15.3033C15.9997 14.6069 16.5522 13.7801 16.9291 12.8701C17.306 11.9602 17.5 10.9849 17.5 10C17.5 9.01509 17.306 8.03982 16.9291 7.12987C16.5522 6.21993 15.9997 5.39314 15.3033 4.6967C14.6069 4.00026 13.7801 3.44781 12.8701 3.0709C11.9602 2.69399 10.9849 2.5 10 2.5C8.01088 2.5 6.10322 3.29018 4.6967 4.6967C3.29018 6.10322 2.5 8.01088 2.5 10C2.5 11.9891 3.29018 13.8968 4.6967 15.3033C6.10322 16.7098 8.01088 17.5 10 17.5Z" fill="#16A34A"/>
</svg>
