<svg width="16" height="18" viewBox="0 0 16 18" fill="none" xmlns="http://www.w3.org/2000/svg">
<path fill-rule="evenodd" clip-rule="evenodd" d="M4 0.25C4.19891 0.25 4.38968 0.329018 4.53033 0.46967C4.67098 0.610322 4.75 0.801088 4.75 1V1.75H11.25V1C11.25 0.801088 11.329 0.610322 11.4697 0.46967C11.6103 0.329018 11.8011 0.25 12 0.25C12.1989 0.25 12.3897 0.329018 12.5303 0.46967C12.671 0.610322 12.75 0.801088 12.75 1V1.758C12.902 1.762 13.0437 1.76933 13.175 1.78C13.555 1.81 13.911 1.878 14.248 2.05C14.7656 2.31367 15.1863 2.73445 15.45 3.252C15.622 3.589 15.69 3.945 15.72 4.325C15.75 4.69 15.75 5.135 15.75 5.67V13.33C15.75 13.865 15.75 14.31 15.72 14.675C15.69 15.055 15.622 15.411 15.45 15.748C15.1866 16.2654 14.7662 16.6862 14.249 16.95C13.911 17.122 13.555 17.19 13.175 17.22C12.81 17.25 12.365 17.25 11.831 17.25H4.17C3.635 17.25 3.19 17.25 2.825 17.22C2.445 17.19 2.089 17.122 1.752 16.95C1.23475 16.6869 0.81401 16.2668 0.55 15.75C0.378 15.412 0.31 15.056 0.28 14.676C0.25 14.311 0.25 13.866 0.25 13.332V5.67C0.25 5.135 0.25 4.69 0.28 4.325C0.31 3.945 0.378 3.589 0.55 3.252C0.813671 2.73445 1.23445 2.31367 1.752 2.05C2.089 1.878 2.445 1.81 2.825 1.78C2.95633 1.76933 3.098 1.762 3.25 1.758V1C3.25 0.901509 3.2694 0.803982 3.30709 0.712987C3.34478 0.621993 3.40003 0.539314 3.46967 0.46967C3.53931 0.400026 3.62199 0.344781 3.71299 0.30709C3.80398 0.269399 3.90151 0.25 4 0.25ZM14.25 7.25H1.75V13.3C1.75 13.872 1.75 14.257 1.775 14.552C1.798 14.84 1.84 14.977 1.886 15.067C2.006 15.303 2.197 15.494 2.433 15.614C2.523 15.66 2.66 15.702 2.947 15.725C3.243 15.749 3.627 15.75 4.2 15.75H11.8C12.372 15.75 12.757 15.75 13.052 15.725C13.34 15.702 13.477 15.66 13.567 15.614C13.8026 15.4941 13.9941 15.3026 14.114 15.067C14.16 14.977 14.202 14.84 14.225 14.552C14.249 14.257 14.25 13.872 14.25 13.3V7.25ZM6.5 4C6.30109 4 6.11032 4.07902 5.96967 4.21967C5.82902 4.36032 5.75 4.55109 5.75 4.75C5.75 4.94891 5.82902 5.13968 5.96967 5.28033C6.11032 5.42098 6.30109 5.5 6.5 5.5H9.5C9.69891 5.5 9.88968 5.42098 10.0303 5.28033C10.171 5.13968 10.25 4.94891 10.25 4.75C10.25 4.55109 10.171 4.36032 10.0303 4.21967C9.88968 4.07902 9.69891 4 9.5 4H6.5Z" fill="#A7A7A7"/>
</svg>
