<svg width="28" height="28" viewBox="0 0 28 28" fill="none" xmlns="http://www.w3.org/2000/svg">
<path d="M7.89841 12.9687V7.89725H12.9687V12.9687H7.89841ZM7.89841 20.1029V15.0314H12.9687V20.1029H7.89841ZM15.0326 12.9676V7.89841H20.1029V12.9699L15.0326 12.9676ZM15.0326 20.1029V15.0314H20.1029V20.1029H15.0326ZM6.55091 23.3334C6.01425 23.3334 5.56625 23.1537 5.20691 22.7944C4.84758 22.4351 4.66753 21.9863 4.66675 21.4481V6.55208C4.66675 6.01464 4.8468 5.56625 5.20691 5.20691C5.56703 4.84758 6.01541 4.66753 6.55208 4.66675H21.4492C21.9859 4.66675 22.4343 4.8468 22.7944 5.20691C23.1545 5.56703 23.3342 6.01541 23.3334 6.55208V21.4492C23.3334 21.9859 23.1537 22.4343 22.7944 22.7944C22.4351 23.1545 21.9863 23.3342 21.4481 23.3334H6.55091ZM6.55091 22.1667H21.4492C21.6281 22.1667 21.7926 22.0921 21.9427 21.9427C22.0929 21.7934 22.1675 21.6285 22.1667 21.4481V6.55208C22.1667 6.37241 22.0921 6.20753 21.9427 6.05741C21.7934 5.9073 21.6285 5.83264 21.4481 5.83341H6.55208C6.37241 5.83341 6.20753 5.90808 6.05741 6.05741C5.9073 6.20675 5.83264 6.37164 5.83341 6.55208V21.4492C5.83341 21.6281 5.90808 21.7926 6.05741 21.9427C6.20675 22.0929 6.37125 22.1675 6.55091 22.1667Z" fill="white"/>
</svg>
