<svg width="22" height="19" viewBox="0 0 22 19" fill="none" xmlns="http://www.w3.org/2000/svg">
<path d="M3 7C2.078 7 1 6.087 1 5V4C1.008 3.72533 1.53733 3.036 2.588 1.932C2.86829 1.63743 3.20555 1.40291 3.57927 1.2427C3.95299 1.08248 4.35538 0.99991 4.762 1H17.238C17.6446 0.99991 18.047 1.08248 18.4207 1.2427C18.7945 1.40291 19.1317 1.63743 19.412 1.932C20.462 3.036 20.9913 3.72533 21 4V5C21 6.087 19.922 7 19 7M3 7C4.107 7 5 6.09 5 5C5 6.09 5.893 7 7 7C8.107 7 9 6.09 9 5C9 6.09 9.893 7 11 7C12.107 7 13 6.09 13 5C13 6.09 13.893 7 15 7C16.107 7 17 6.09 17 5C17 6.09 17.893 7 19 7M3 7C2.88267 13.28 3.154 16.7653 3.814 17.456C5.348 17.823 8.169 17.991 11 17.992C13.83 17.991 16.652 17.823 18.186 17.456C19.176 16.419 19.084 7.897 19 7" stroke="#D5B0F8" stroke-width="1.5" stroke-linecap="round" stroke-linejoin="round"/>
<path d="M9.00195 13L11.002 11M11.002 11L13.002 13M11.002 11V15" stroke="#D5B0F8" stroke-width="1.5" stroke-linecap="round" stroke-linejoin="round"/>
</svg>
