<svg width="14" height="20" viewBox="0 0 14 20" fill="none" xmlns="http://www.w3.org/2000/svg">
<path d="M7 0C7.98891 0 8.95561 0.293245 9.77785 0.842652C10.6001 1.39206 11.241 2.17295 11.6194 3.08658C11.9978 4.00021 12.0969 5.00555 11.9039 5.97545C11.711 6.94536 11.2348 7.83627 10.5355 8.53553C9.83627 9.2348 8.94536 9.711 7.97545 9.90393C7.00555 10.0969 6.00021 9.99784 5.08658 9.6194C4.17295 9.24096 3.39206 8.6001 2.84265 7.77785C2.29324 6.95561 2 5.98891 2 5L2.005 4.783C2.06092 3.49575 2.61161 2.27978 3.54222 1.38866C4.47284 0.497541 5.71154 7.44425e-05 7 0ZM9 12C10.3261 12 11.5979 12.5268 12.5355 13.4645C13.4732 14.4021 14 15.6739 14 17V18C14 18.5304 13.7893 19.0391 13.4142 19.4142C13.0391 19.7893 12.5304 20 12 20H2C1.46957 20 0.960859 19.7893 0.585786 19.4142C0.210714 19.0391 0 18.5304 0 18V17C0 15.6739 0.526784 14.4021 1.46447 13.4645C2.40215 12.5268 3.67392 12 5 12H9Z" fill="#2563EB"/>
</svg>
