<svg width="25" height="40" viewBox="0 0 25 40" fill="none" xmlns="http://www.w3.org/2000/svg">
<path d="M22.8065 15.8576C22.5768 15.4998 22.3095 15.1674 22.0091 14.866L7.54697 0.427979L0.441841 7.5126L9.78944 16.8433C10.221 17.2441 10.5652 17.7291 10.8005 18.2681C11.0359 18.8071 11.1573 19.3886 11.1573 19.9764C11.1573 20.5642 11.0359 21.1457 10.8005 21.6847C10.5652 22.2238 10.221 22.7088 9.78944 23.1095L0.441841 32.4402L7.54697 39.5248L22.0091 25.0868C22.3095 24.7854 22.5768 24.453 22.8065 24.0952C23.678 22.8822 24.2079 21.4591 24.3415 19.9734C24.2172 18.4875 23.6863 17.0639 22.8065 15.8576Z" fill="white"/>
</svg>
