<svg width="238" height="48" viewBox="0 0 238 48" fill="none" xmlns="http://www.w3.org/2000/svg">
<path d="M235.696 42.6482L224.767 28.7972H222.934V46.0839H224.841V31.8812L236.049 46.0839H237.611V28.7972H235.696V42.6482ZM216.763 37.4609C216.77 38.411 216.597 39.354 216.254 40.2405C215.935 41.0749 215.461 41.8414 214.856 42.4995C214.252 43.1471 213.522 43.665 212.71 44.0212C211.854 44.3918 210.929 44.5807 209.995 44.5757C209.06 44.5817 208.134 44.388 207.28 44.0076C206.451 43.6449 205.703 43.1223 205.079 42.4699C204.454 41.8175 203.965 41.0483 203.641 40.2067C203.298 39.3153 203.126 38.368 203.132 37.4135C203.125 36.4634 203.298 35.5204 203.641 34.6339C203.962 33.8007 204.436 33.0347 205.039 32.375C205.641 31.7272 206.372 31.2113 207.185 30.86C208.049 30.4876 208.982 30.2955 209.924 30.2955C210.866 30.2955 211.798 30.4876 212.663 30.86C213.484 31.2279 214.223 31.7537 214.84 32.4071C215.456 33.0605 215.936 33.8287 216.254 34.6677C216.597 35.5567 216.769 36.5018 216.763 37.4541M218.8 37.4068C218.805 36.2368 218.591 35.0761 218.168 33.9846C217.761 32.9311 217.153 31.9664 216.376 31.1441C215.584 30.3219 214.635 29.6645 213.586 29.2098C212.442 28.7321 211.215 28.4861 209.975 28.4861C208.735 28.4861 207.507 28.7321 206.363 29.2098C205.304 29.6663 204.35 30.3338 203.56 31.1711C202.781 32.0009 202.166 32.9691 201.747 34.0252C201.318 35.1129 201.102 36.2721 201.109 37.4406C201.102 38.6106 201.317 39.7715 201.74 40.8628C202.147 41.9163 202.756 42.881 203.532 43.7033C204.325 44.5254 205.273 45.1829 206.322 45.6376C207.467 46.113 208.694 46.3578 209.934 46.3578C211.174 46.3578 212.401 46.113 213.545 45.6376C214.603 45.176 215.557 44.5066 216.349 43.6695C217.127 42.8436 217.74 41.8772 218.155 40.8222C218.589 39.7334 218.808 38.5714 218.8 37.4M194.836 46.0704H196.791V28.7972H194.836V46.0704ZM191.069 46.0704L184.402 37.2242L190.818 28.7837H188.537L183.262 35.8445L177.933 28.7837H175.625L182.047 37.2512L175.381 46.0434H177.634L183.187 38.6038L188.74 46.0434L191.069 46.0704ZM172.618 28.7972H160.079V46.0839H172.753V44.3052H162.034V38.2522H171.538V36.4734H162.034V30.5759H172.618V28.7972ZM153.264 42.6482L142.334 28.7972H140.501V46.0839H142.409V31.8812L153.61 46.0839H155.171V28.7972H153.264V42.6482ZM133.686 42.6482L122.756 28.7972H120.917V46.0839H122.824V31.8812L134.032 46.0839H135.593V28.7972H133.686V42.6482ZM114.746 37.4609C114.753 38.411 114.58 39.354 114.237 40.2405C113.921 41.0762 113.446 41.8432 112.838 42.4995C112.236 43.1486 111.506 43.6667 110.693 44.0212C109.836 44.3918 108.912 44.5807 107.978 44.5757C107.042 44.5817 106.116 44.388 105.262 44.0076C104.448 43.6393 103.713 43.118 103.097 42.4724C102.477 41.8178 101.992 41.0479 101.671 40.2067C101.328 39.3153 101.156 38.368 101.162 37.4135C101.155 36.4634 101.328 35.5204 101.671 34.6339C101.992 33.8007 102.466 33.0347 103.07 32.375C103.671 31.7272 104.402 31.2113 105.215 30.86C106.08 30.4876 107.012 30.2955 107.954 30.2955C108.896 30.2955 109.828 30.4876 110.693 30.86C111.508 31.2266 112.244 31.7481 112.859 32.3952C113.483 33.0488 113.968 33.8219 114.284 34.6677C114.627 35.5567 114.799 36.5018 114.793 37.4541M116.83 37.4068C116.836 36.2368 116.621 35.0761 116.199 33.9846C115.789 32.9307 115.178 31.966 114.4 31.1441C113.608 30.3204 112.66 29.6627 111.609 29.2098C110.466 28.7321 109.238 28.4861 107.998 28.4861C106.758 28.4861 105.53 28.7321 104.387 29.2098C103.329 29.6682 102.375 30.3354 101.583 31.1711C100.804 31.9995 100.192 32.9681 99.7772 34.0252C99.3465 35.1125 99.1276 36.2716 99.1322 37.4406C99.1258 38.6106 99.34 39.7715 99.7636 40.8628C100.171 41.9179 100.782 42.8831 101.563 43.7033C102.351 44.5268 103.298 45.1845 104.346 45.6376C105.491 46.1129 106.72 46.3576 107.961 46.3576C109.202 46.3576 110.43 46.1129 111.576 45.6376C112.63 45.1743 113.581 44.5051 114.372 43.6695C115.153 42.8439 115.768 41.8775 116.185 40.8222C116.616 39.7325 116.835 38.5711 116.83 37.4M96.9735 43.3245L95.6837 42.0666C94.9366 42.7994 94.0858 43.4192 93.1584 43.9062C92.2022 44.3728 91.1477 44.6047 90.0832 44.5825C89.1666 44.589 88.2593 44.3999 87.4221 44.0279C86.6175 43.6663 85.8929 43.149 85.2905 42.5062C84.6545 41.8434 84.1562 41.062 83.8242 40.2067C83.4803 39.3086 83.3076 38.3545 83.3151 37.3932C83.3064 36.4363 83.4791 35.4864 83.8242 34.5933C84.1448 33.7549 84.6242 32.9857 85.2362 32.3276C85.8377 31.6889 86.5628 31.1781 87.3678 30.8262C88.2054 30.4564 89.1128 30.2696 90.0289 30.2784C91.0896 30.2511 92.1408 30.4833 93.0905 30.9547C93.9597 31.4141 94.7633 31.9873 95.4801 32.659L96.8378 31.2252C96.4112 30.8208 95.9576 30.4457 95.4801 30.1025C95.02 29.7684 94.5263 29.4828 94.0069 29.2503C93.4359 29.0083 92.8425 28.8226 92.2352 28.6958C91.5284 28.5597 90.8098 28.494 90.09 28.4996C88.8812 28.4796 87.6815 28.7099 86.5668 29.176C85.5202 29.6252 84.5758 30.2809 83.7903 31.1035C83.0078 31.9314 82.3904 32.8999 81.971 33.9575C81.5231 35.0622 81.2926 36.2424 81.2921 37.4338C81.2915 38.6363 81.5219 39.8278 81.971 40.9439C82.3895 41.9939 83.0072 42.9538 83.7903 43.7709C84.5986 44.5981 85.5672 45.2531 86.6373 45.696C87.7073 46.139 88.8566 46.3607 90.0153 46.3477C90.7411 46.355 91.4653 46.2801 92.174 46.1245C92.7968 45.9859 93.4023 45.7795 93.9798 45.5091C94.5359 45.2479 95.0636 44.9306 95.5547 44.5622C96.0527 44.1819 96.5203 43.7636 96.9531 43.311" fill="#4F4E4E"/>
<path d="M237.76 16.3877V16.3268C237.779 15.5136 237.629 14.7053 237.319 13.9529C237.022 13.2844 236.579 12.6905 236.022 12.2148C235.384 11.689 234.67 11.2625 233.904 10.9501C232.974 10.5698 232.02 10.2534 231.046 10.0032C230.137 9.76652 229.39 9.5501 228.793 9.37426C228.304 9.23655 227.832 9.04367 227.387 8.79938C227.093 8.64153 226.847 8.40798 226.674 8.12307C226.538 7.84543 226.471 7.5393 226.478 7.23032V7.16945C226.478 6.91361 226.539 6.66148 226.657 6.43431C226.775 6.20715 226.947 6.0116 227.156 5.86416C227.759 5.46971 228.474 5.28428 229.193 5.33664C230.126 5.34128 231.049 5.52976 231.908 5.89122C232.886 6.30155 233.819 6.8115 234.692 7.41294L237.108 3.91636C234.886 2.12659 232.105 1.16935 229.247 1.21109C228.231 1.19915 227.22 1.35221 226.254 1.66423C225.395 1.93651 224.599 2.37555 223.912 2.956C223.261 3.51411 222.74 4.20639 222.384 4.98496C222.013 5.80241 221.827 6.69156 221.841 7.58877V7.64963C221.812 8.54773 221.981 9.44131 222.337 10.267C222.659 10.9592 223.143 11.5645 223.749 12.0322C224.42 12.5371 225.164 12.9384 225.955 13.2225C226.904 13.5661 227.872 13.8574 228.854 14.095C229.586 14.2707 230.308 14.4829 231.019 14.7307C231.473 14.882 231.908 15.084 232.316 15.3326C232.583 15.4849 232.804 15.707 232.954 15.9751C233.066 16.226 233.122 16.4985 233.117 16.7732V16.8341C233.124 17.1263 233.054 17.4154 232.914 17.672C232.773 17.9285 232.567 18.1435 232.316 18.2949C231.632 18.6842 230.849 18.8675 230.062 18.8224C228.913 18.8387 227.774 18.608 226.722 18.1461C225.655 17.6525 224.656 17.0252 223.749 16.2795L220.993 19.5596C222.222 20.6796 223.662 21.5461 225.229 22.1093C226.753 22.6547 228.361 22.9338 229.98 22.9344C231.044 22.9455 232.104 22.7973 233.124 22.4948C234.015 22.2352 234.847 21.8057 235.574 21.2301C236.259 20.687 236.808 19.9923 237.176 19.2012C237.576 18.3271 237.773 17.3749 237.753 16.4147M217.707 13.466V1.54248H213.05V13.6215C213.154 14.9953 212.718 16.3556 211.835 17.4157C211.397 17.8496 210.871 18.1866 210.294 18.4045C209.716 18.6225 209.098 18.7165 208.481 18.6804C207.861 18.7143 207.24 18.6147 206.661 18.3883C206.083 18.1619 205.56 17.814 205.128 17.3684C204.318 16.4936 203.913 15.1928 203.913 13.466V1.54248H199.263V13.5877C199.263 16.7056 200.077 19.0388 201.706 20.6079C203.336 22.177 205.583 22.9547 208.42 22.9547C209.725 22.9738 211.023 22.7773 212.263 22.3731C213.362 22.0086 214.365 21.4004 215.195 20.5944C216.029 19.7547 216.664 18.7404 217.055 17.6253C217.526 16.2802 217.755 14.8632 217.734 13.4389M191.15 16.2727C191.172 16.6128 191.103 16.9527 190.949 17.257C190.795 17.5614 190.562 17.8193 190.275 18.0041C189.538 18.4125 188.7 18.6048 187.858 18.5587H182.325V13.9191H187.688C188.607 13.8468 189.525 14.062 190.315 14.5346C190.576 14.729 190.786 14.9827 190.927 15.2745C191.069 15.5663 191.139 15.8878 191.13 16.2118L191.15 16.2727ZM189.976 7.83902C189.999 8.17841 189.926 8.51736 189.765 8.81742C189.604 9.11749 189.362 9.36662 189.066 9.53657C188.31 9.9235 187.465 10.1054 186.616 10.0641H182.325V5.60716H186.921C187.716 5.55592 188.508 5.74954 189.188 6.16175C189.446 6.34298 189.653 6.58626 189.791 6.86892C189.929 7.15158 189.992 7.46438 189.976 7.77814V7.83902ZM195.78 16.8408V16.7799C195.852 15.5889 195.474 14.4141 194.721 13.4863C193.924 12.6283 192.925 11.9802 191.816 11.5994C192.201 11.4016 192.561 11.1587 192.888 10.8757C193.224 10.5907 193.52 10.2633 193.771 9.90179C194.03 9.51485 194.233 9.0937 194.375 8.65059C194.532 8.13329 194.607 7.59487 194.599 7.05449V6.99362C194.628 6.23122 194.475 5.4728 194.151 4.78122C193.828 4.08965 193.344 3.48483 192.739 3.01687C191.503 2.02944 189.793 1.54248 187.614 1.54248H177.77V22.6233H187.838C188.932 22.6363 190.024 22.5159 191.089 22.2649C191.983 22.059 192.832 21.6923 193.594 21.1828C194.272 20.722 194.823 20.0987 195.196 19.3703C195.586 18.5846 195.779 17.7169 195.76 16.8408M172.679 22.6233V1.54248H167.662L162.102 10.4496L156.543 1.53573H151.519V22.6233H156.088V8.94818L161.98 17.8891H162.102L168.063 8.88054V22.6233H172.679ZM142.504 12.1404C142.51 13.0121 142.351 13.8771 142.036 14.6901C141.736 15.4616 141.294 16.1704 140.732 16.7799C140.163 17.3926 139.468 17.8768 138.696 18.2002C137.884 18.5431 137.011 18.7158 136.13 18.7075C135.239 18.7198 134.357 18.5398 133.543 18.1799C132.776 17.8433 132.084 17.3583 131.507 16.7529C130.919 16.1453 130.458 15.4282 130.149 14.6428C129.834 13.8248 129.675 12.9555 129.681 12.0795V12.0254C129.674 11.1537 129.833 10.2886 130.149 9.4757C130.449 8.70423 130.891 7.99544 131.452 7.38588C132.008 6.77607 132.689 6.29181 133.448 5.96561C134.265 5.61884 135.146 5.44606 136.035 5.45837C136.918 5.45002 137.793 5.62988 138.601 5.9859C139.375 6.31963 140.074 6.80461 140.657 7.41213C141.24 8.01966 141.695 8.73743 141.995 9.52305C142.309 10.3388 142.468 11.2058 142.463 12.0795L142.504 12.1404ZM147.371 12.0795V12.0254C147.381 10.5733 147.1 9.13379 146.543 7.79168C146.014 6.50685 145.232 5.34085 144.242 4.36273C143.215 3.37149 142.008 2.58422 140.685 2.04297C137.788 0.896414 134.56 0.896414 131.663 2.04297C130.34 2.57454 129.136 3.36235 128.121 4.36075C127.106 5.35916 126.3 6.54832 125.75 7.85931C125.181 9.19597 124.892 10.6344 124.902 12.0863V12.1472C124.89 13.6001 125.174 15.0402 125.737 16.3809C126.27 17.6718 127.063 18.8408 128.065 19.8166C129.09 20.8077 130.295 21.595 131.615 22.1364C133.045 22.7215 134.578 23.0136 136.123 22.9953C137.672 23.0118 139.209 22.7198 140.644 22.1364C141.965 21.6031 143.167 20.8146 144.181 19.8163C145.194 18.8181 145.999 17.6298 146.55 16.32C147.123 14.9822 147.412 13.5408 147.399 12.0863M120.74 22.6233V1.54248H116.083V9.8815H107.496V1.54248H102.832V22.6233H107.489V14.1626H116.077V22.6233H120.74ZM93.9189 8.79938C93.936 9.20679 93.8621 9.6129 93.7024 9.98835C93.5427 10.3638 93.3014 10.6992 92.9957 10.9704C92.2442 11.5577 91.301 11.8468 90.3482 11.782H85.5962V5.69508H90.226C91.1902 5.63251 92.1473 5.89711 92.9414 6.44579C93.2707 6.71924 93.5303 7.06649 93.699 7.45911C93.8677 7.85173 93.9408 8.27858 93.9121 8.70471L93.9189 8.79938ZM99.2682 22.6233L94.1022 15.0959C95.3988 14.6335 96.5362 13.8123 97.381 12.7288C98.2601 11.5188 98.7027 10.0482 98.6369 8.55592V8.49503C98.6896 7.53954 98.5281 6.58434 98.1641 5.69878C97.8001 4.81322 97.2427 4.01953 96.5325 3.37531C95.134 2.15343 93.1744 1.54248 90.6536 1.54248H80.9733V22.6233H85.6302V15.8602H89.2892L93.8306 22.6233H99.2682Z" fill="#302354"/>
<path d="M66.7168 -3.8147e-06V47.552H67.9998V-3.8147e-06" fill="#050505"/>
<path d="M55.2582 19.0857C54.9981 18.6806 54.6955 18.3042 54.3553 17.963L37.9815 1.6164L29.9371 9.63753L40.5204 20.2017C41.009 20.6554 41.3987 21.2045 41.6651 21.8148C41.9316 22.4251 42.0691 23.0834 42.0691 23.7489C42.0691 24.4144 41.9316 25.0728 41.6651 25.6831C41.3987 26.2934 41.009 26.8425 40.5204 27.2962L29.9371 37.8603L37.9815 45.8815L54.3553 29.5348C54.6955 29.1937 54.9981 28.8173 55.2582 28.4121C56.2448 27.0389 56.8449 25.4277 56.996 23.7456C56.8553 22.0632 56.2542 20.4515 55.2582 19.0857Z" fill="#4F4E4E"/>
<path d="M1.73798 28.4121C1.99956 28.8183 2.30209 29.1967 2.64085 29.5416L19.0147 45.8815L27.059 37.8603L16.4758 27.2962C15.9871 26.8425 15.5975 26.2934 15.331 25.6831C15.0646 25.0728 14.9271 24.4144 14.9271 23.7489C14.9271 23.0834 15.0646 22.4251 15.331 21.8148C15.5975 21.2045 15.9871 20.6554 16.4758 20.2017L27.059 9.63753L19.0147 1.6164L2.64085 17.963C2.29893 18.3051 1.99612 18.6839 1.73798 19.0925C0.752455 20.4638 0.152489 22.0726 0.00012207 23.7523C0.139818 25.4349 0.740999 27.0469 1.73798 28.4121Z" fill="#302354"/>
</svg>
