<svg width="48" height="48" viewBox="0 0 48 48" fill="none" xmlns="http://www.w3.org/2000/svg">
<path d="M0 6C0 2.68629 2.68629 0 6 0H42C45.3137 0 48 2.68629 48 6V42C48 45.3137 45.3137 48 42 48H6C2.68629 48 0 45.3137 0 42V6Z" fill="#F3E8FF"/>
<path d="M16 22C15.078 22 14 21.087 14 20V19C14.008 18.7253 14.5373 18.036 15.588 16.932C15.8683 16.6374 16.2055 16.4029 16.5793 16.2427C16.953 16.0825 17.3554 15.9999 17.762 16H30.238C30.6446 15.9999 31.047 16.0825 31.4207 16.2427C31.7945 16.4029 32.1317 16.6374 32.412 16.932C33.462 18.036 33.9913 18.7253 34 19V20C34 21.087 32.922 22 32 22M16 22C17.107 22 18 21.09 18 20C18 21.09 18.893 22 20 22C21.107 22 22 21.09 22 20C22 21.09 22.893 22 24 22C25.107 22 26 21.09 26 20C26 21.09 26.893 22 28 22C29.107 22 30 21.09 30 20C30 21.09 30.893 22 32 22M16 22C15.8827 28.28 16.154 31.7653 16.814 32.456C18.348 32.823 21.169 32.991 24 32.992C26.83 32.991 29.652 32.823 31.186 32.456C32.176 31.419 32.084 22.897 32 22" stroke="#D5B0F8" stroke-width="1.5" stroke-linecap="round" stroke-linejoin="round"/>
<path d="M22.002 28L24.002 26M24.002 26L26.002 28M24.002 26V30" stroke="#D5B0F8" stroke-width="1.5" stroke-linecap="round" stroke-linejoin="round"/>
</svg>
