<svg width="48" height="48" viewBox="0 0 48 48" fill="none" xmlns="http://www.w3.org/2000/svg">
<path d="M0 6C0 2.68629 2.68629 0 6 0H42C45.3137 0 48 2.68629 48 6V42C48 45.3137 45.3137 48 42 48H6C2.68629 48 0 45.3137 0 42V6Z" fill="#DEECFE"/>
<path d="M20.3994 21.5999C21.3541 21.5999 22.2698 21.2206 22.9449 20.5455C23.6201 19.8704 23.9994 18.9547 23.9994 17.9999C23.9994 17.0451 23.6201 16.1294 22.9449 15.4543C22.2698 14.7792 21.3541 14.3999 20.3994 14.3999C19.4446 14.3999 18.5289 14.7792 17.8538 15.4543C17.1786 16.1294 16.7994 17.0451 16.7994 17.9999C16.7994 18.9547 17.1786 19.8704 17.8538 20.5455C18.5289 21.2206 19.4446 21.5999 20.3994 21.5999ZM29.3994 22.7999C30.195 22.7999 30.9581 22.4838 31.5207 21.9212C32.0833 21.3586 32.3994 20.5956 32.3994 19.7999C32.3994 19.0043 32.0833 18.2412 31.5207 17.6786C30.9581 17.116 30.195 16.7999 29.3994 16.7999C28.6037 16.7999 27.8406 17.116 27.278 17.6786C26.7154 18.2412 26.3994 19.0043 26.3994 19.7999C26.3994 20.5956 26.7154 21.3586 27.278 21.9212C27.8406 22.4838 28.6037 22.7999 29.3994 22.7999ZM13.9374 31.7135C13.7017 31.5673 13.5124 31.3571 13.3915 31.1075C13.2706 30.8579 13.2231 30.5791 13.2546 30.3035C13.4758 28.5648 14.3235 26.9664 15.6387 25.8078C16.954 24.6493 18.6466 24.0102 20.3994 24.0102C22.1521 24.0102 23.8447 24.6493 25.16 25.8078C26.4753 26.9664 27.3229 28.5648 27.5442 30.3035C27.6138 30.8639 27.3378 31.4075 26.8602 31.7123C24.9321 32.9481 22.6894 33.6033 20.3994 33.5999C18.109 33.6039 15.8658 32.9491 13.9374 31.7135ZM29.3994 31.1999H29.2722C29.3562 30.8435 29.3778 30.4667 29.3298 30.0803C29.1247 28.4307 28.4649 26.8706 27.4242 25.5743C28.0939 25.3104 28.8096 25.1831 29.5292 25.1998C30.2488 25.2166 30.9579 25.377 31.6146 25.6717C32.2713 25.9664 32.8625 26.3895 33.3534 26.916C33.8442 27.4424 34.2249 28.0618 34.473 28.7375C34.5488 28.9532 34.5471 29.1885 34.4683 29.4031C34.3895 29.6177 34.2384 29.7982 34.041 29.9135C32.6401 30.7577 31.0349 31.2026 29.3994 31.1999Z" fill="#2563EB"/>
</svg>
