<svg width="48" height="48" viewBox="0 0 48 48" fill="none" xmlns="http://www.w3.org/2000/svg">
<path d="M0 6C0 2.68629 2.68629 0 6 0H42C45.3137 0 48 2.68629 48 6V42C48 45.3137 45.3137 48 42 48H6C2.68629 48 0 45.3137 0 42V6Z" fill="#DCFCE7"/>
<g clip-path="url(#clip0_333_6366)">
<path d="M13.38 21.2H34.6162C35.3775 21.2 35.9963 20.5813 35.9963 19.82C35.9963 19.5462 35.9137 19.28 35.7637 19.055L32.9325 14.8025C32.5987 14.3 32.04 14 31.4362 14H16.5637C15.9637 14 15.4012 14.3 15.0675 14.8025L12.2325 19.0512C12.0825 19.28 12 19.5463 12 19.8163C12 20.5813 12.6187 21.2 13.38 21.2ZM14.4 22.4V31.4C14.4 32.3938 15.2062 33.2 16.2 33.2H24.6C25.5937 33.2 26.4 32.3938 26.4 31.4V22.4H24V28.4H16.8V22.4H14.4ZM31.2 22.4V32C31.2 32.6638 31.7362 33.2 32.4 33.2C33.0637 33.2 33.6 32.6638 33.6 32V22.4H31.2Z" fill="#16A34A"/>
</g>
<defs>
<clipPath id="clip0_333_6366">
<rect width="24" height="19.2" fill="white" transform="translate(12 14)"/>
</clipPath>
</defs>
</svg>
