<svg width="22" height="22" viewBox="0 0 22 22" fill="none" xmlns="http://www.w3.org/2000/svg">
<g clip-path="url(#clip0_418_7521)">
<path fill-rule="evenodd" clip-rule="evenodd" d="M11.2403 0.00260423C9.63986 -0.032226 8.05109 0.282685 6.58493 0.925353C5.11877 1.56802 3.81054 2.52295 2.75159 3.72349C1.69264 4.92402 0.908485 6.34122 0.45387 7.87614C-0.000745915 9.41106 -0.114865 11.0267 0.119481 12.6103C0.353827 14.1939 0.930989 15.7072 1.81067 17.0447C2.69036 18.3822 3.85136 19.5115 5.21263 20.3539C6.5739 21.1963 8.10263 21.7314 9.69208 21.9219C11.2815 22.1123 12.8934 21.9536 14.4152 21.4567C14.6752 21.3718 14.8908 21.187 15.0146 20.943C15.1384 20.6991 15.1602 20.416 15.0752 20.156C14.9902 19.896 14.8054 19.6804 14.5615 19.5566C14.3176 19.4328 14.0344 19.411 13.7744 19.496C12.1207 20.036 10.3454 20.0816 8.66612 19.6273C6.98686 19.173 5.47669 18.2384 4.32081 16.9383C3.16494 15.6382 2.41361 14.0291 2.15898 12.3082C1.90434 10.5873 2.15746 8.82946 2.8873 7.25033C3.61715 5.6712 4.79198 4.33939 6.26771 3.41823C7.74345 2.49708 9.45594 2.02663 11.1952 2.06457C12.9344 2.10252 14.6247 2.64721 16.0589 3.63185C17.493 4.61649 18.6087 5.99827 19.2689 7.60773C19.3727 7.86081 19.5727 8.06231 19.825 8.16791C19.95 8.22019 20.084 8.24736 20.2194 8.24785C20.3549 8.24835 20.4891 8.22216 20.6144 8.17079C20.7397 8.11942 20.8537 8.04387 20.9498 7.94845C21.0459 7.85304 21.1223 7.73962 21.1746 7.61469C21.2268 7.48975 21.254 7.35574 21.2545 7.22031C21.255 7.08487 21.2288 6.95067 21.1774 6.82535C20.3648 4.84438 18.9918 3.14363 17.2266 1.93168C15.4615 0.719742 13.381 0.0493068 11.2403 0.00260423ZM12.0309 5.1561C12.0309 4.8826 11.9223 4.6203 11.7289 4.4269C11.5355 4.2335 11.2732 4.12485 10.9997 4.12485C10.7262 4.12485 10.4639 4.2335 10.2705 4.4269C10.0771 4.6203 9.96844 4.8826 9.96844 5.1561V10.5736L7.17169 13.369C7.07037 13.4634 6.9891 13.5772 6.93274 13.7037C6.87637 13.8302 6.84607 13.9668 6.84362 14.1053C6.84118 14.2437 6.86665 14.3813 6.91852 14.5097C6.97038 14.6381 7.04758 14.7547 7.14551 14.8527C7.24343 14.9506 7.36008 15.0278 7.48849 15.0796C7.6169 15.1315 7.75444 15.157 7.8929 15.1545C8.03137 15.1521 8.16793 15.1218 8.29443 15.0654C8.42092 15.0091 8.53478 14.9278 8.62919 14.8265L11.7284 11.7286L12.0309 11.4261V5.1561ZM20.6247 20.6249C20.6247 20.9895 20.4798 21.3393 20.222 21.5971C19.9641 21.855 19.6144 21.9999 19.2497 21.9999C18.885 21.9999 18.5353 21.855 18.2774 21.5971C18.0196 21.3393 17.8747 20.9895 17.8747 20.6249C17.8747 20.2602 18.0196 19.9104 18.2774 19.6526C18.5353 19.3947 18.885 19.2499 19.2497 19.2499C19.6144 19.2499 19.9641 19.3947 20.222 19.6526C20.4798 19.9104 20.6247 20.2602 20.6247 20.6249ZM20.2809 12.0311C20.2809 11.7576 20.1723 11.4953 19.9789 11.3019C19.7855 11.1085 19.5232 10.9999 19.2497 10.9999C18.9762 10.9999 18.7139 11.1085 18.5205 11.3019C18.3271 11.4953 18.2184 11.7576 18.2184 12.0311V16.8436C18.2184 17.1171 18.3271 17.3794 18.5205 17.5728C18.7139 17.7662 18.9762 17.8749 19.2497 17.8749C19.5232 17.8749 19.7855 17.7662 19.9789 17.5728C20.1723 17.3794 20.2809 17.1171 20.2809 16.8436V12.0311Z" fill="#F3CA60"/>
</g>
<defs>
<clipPath id="clip0_418_7521">
<rect width="22" height="22" fill="white"/>
</clipPath>
</defs>
</svg>
