<svg width="24" height="24" viewBox="0 0 24 24" fill="none" xmlns="http://www.w3.org/2000/svg">
<path fill-rule="evenodd" clip-rule="evenodd" d="M8.41712 3.25C8.69712 2.66 9.30012 2.25 9.99912 2.25H13.9991C14.6971 2.25 15.3001 2.66 15.5811 3.25C16.2641 3.256 16.7971 3.287 17.2731 3.473C17.8413 3.69527 18.3355 4.07301 18.6991 4.563C19.0661 5.056 19.2381 5.69 19.4751 6.561L19.5121 6.697L20.1021 8.864C20.4955 9.06248 20.8403 9.34518 21.1121 9.692C21.7341 10.489 21.8441 11.438 21.7341 12.526C21.6261 13.582 21.2941 14.912 20.8781 16.577L20.8511 16.682C20.5881 17.735 20.3741 18.59 20.1211 19.257C19.8551 19.953 19.5191 20.523 18.9641 20.956C18.4101 21.389 17.7751 21.576 17.0361 21.666C16.3271 21.75 15.4461 21.75 14.3611 21.75H9.63712C8.55212 21.75 7.67012 21.75 6.96212 21.665C6.22212 21.577 5.58812 21.389 5.03312 20.955C4.47912 20.523 4.14312 19.953 3.87712 19.257C3.62312 18.59 3.41012 17.735 3.14712 16.682L3.12012 16.577C2.70412 14.912 2.37112 13.582 2.26412 12.527C2.15412 11.437 2.26412 10.489 2.88512 9.692C3.16812 9.33 3.50712 9.062 3.89512 8.864L4.48512 6.697L4.52312 6.561C4.76012 5.69 4.93212 5.056 5.29912 4.562C5.66285 4.07238 6.15702 3.695 6.72512 3.473C7.20112 3.287 7.73312 3.255 8.41712 3.25ZM8.41812 4.753C7.75612 4.76 7.49112 4.785 7.27112 4.871C6.96509 4.99068 6.69893 5.19411 6.50312 5.458C6.32712 5.695 6.22312 6.026 5.93312 7.093L5.57912 8.389C6.61712 8.25 7.95712 8.25 9.62112 8.25H14.3761C16.0411 8.25 17.3811 8.25 18.4181 8.389L18.0651 7.092C17.7741 6.025 17.6711 5.694 17.4951 5.457C17.2993 5.19311 17.0332 4.98968 16.7271 4.87C16.5071 4.784 16.2411 4.759 15.5791 4.752C15.437 5.05066 15.2131 5.30293 14.9335 5.47956C14.6539 5.6562 14.3299 5.74996 13.9991 5.75H9.99912C9.66837 5.74996 9.34439 5.6562 9.06475 5.47956C8.78511 5.30293 8.56125 5.05066 8.41912 4.752M9.99912 3.75C9.93282 3.75 9.86923 3.77634 9.82235 3.82322C9.77546 3.87011 9.74912 3.9337 9.74912 4C9.74912 4.0663 9.77546 4.12989 9.82235 4.17678C9.86923 4.22366 9.93282 4.25 9.99912 4.25H13.9991C14.0654 4.25 14.129 4.22366 14.1759 4.17678C14.2228 4.12989 14.2491 4.0663 14.2491 4C14.2491 3.9337 14.2228 3.87011 14.1759 3.82322C14.129 3.77634 14.0654 3.75 13.9991 3.75H9.99912ZM5.69912 9.886C4.78912 10.018 4.34812 10.258 4.06912 10.616C3.78912 10.973 3.66412 11.458 3.75712 12.374C3.85212 13.31 4.15712 14.534 4.59112 16.274C4.86912 17.382 5.06112 18.15 5.28112 18.724C5.49112 19.278 5.69812 19.571 5.95812 19.774C6.21712 19.976 6.55112 20.105 7.14112 20.176C7.75112 20.249 8.54112 20.25 9.68512 20.25H14.3151C15.4581 20.25 16.2501 20.249 16.8591 20.176C17.4491 20.106 17.7831 19.976 18.0421 19.774C18.3021 19.571 18.5081 19.278 18.7201 18.724C18.9381 18.15 19.1311 17.382 19.4081 16.274C19.8431 14.534 20.1481 13.31 20.2421 12.374C20.3361 11.458 20.2101 10.972 19.9311 10.615C19.6521 10.258 19.2111 10.018 18.3001 9.886C17.3701 9.752 16.1081 9.75 14.3151 9.75H9.68512C7.89212 9.75 6.63012 9.752 5.70012 9.886" fill="#2563EB"/>
</svg>
