<svg width="40" height="40" viewBox="0 0 40 40" fill="none" xmlns="http://www.w3.org/2000/svg">
<path d="M20.0002 36.6668C12.1435 36.6668 8.21516 36.6668 5.7735 34.2252C3.3335 31.7868 3.3335 27.8568 3.3335 20.0002C3.3335 12.1435 3.3335 8.21516 5.7735 5.7735C8.21683 3.3335 12.1435 3.3335 20.0002 3.3335C27.8568 3.3335 31.7852 3.3335 34.2252 5.7735C36.6668 8.21683 36.6668 12.1435 36.6668 20.0002C36.6668 27.8568 36.6668 31.7852 34.2252 34.2252C32.8652 35.5868 31.0418 36.1885 28.3335 36.4552" stroke="#FBAF3F" stroke-width="3" stroke-linecap="round" stroke-linejoin="round"/>
<path d="M20.0002 36.6668C20.0002 34.4567 20.8781 32.3371 22.4409 30.7743C24.0037 29.2115 26.1234 28.3335 28.3335 28.3335M3.3335 15.0002H23.3335M30.0002 15.0002H36.6668M15.0002 36.6668V15.0002M15.0002 8.3335V3.3335" stroke="#FBAF3F" stroke-width="3" stroke-linecap="round" stroke-linejoin="round"/>
</svg>
