<svg width="211" height="43" viewBox="0 0 211 43" fill="none" xmlns="http://www.w3.org/2000/svg">
<g clip-path="url(#clip0_1_17)">
<rect width="209.163" height="41.8327" transform="translate(0.920357 0.920166)" fill="#291E48"/>
<path d="M208.268 38.439L198.653 26.2539H197.041V41.4615H198.719V28.967L208.579 41.4615H209.952V26.2539H208.268V38.439ZM191.612 33.8756C191.618 34.7115 191.466 35.541 191.164 36.3209C190.884 37.0549 190.467 37.7292 189.934 38.3081C189.403 38.8779 188.761 39.3335 188.047 39.6468C187.293 39.9729 186.48 40.139 185.658 40.1347C184.835 40.1399 184.021 39.9695 183.269 39.6349C182.541 39.3159 181.882 38.8561 181.333 38.2822C180.784 37.7082 180.354 37.0315 180.068 36.2912C179.767 35.507 179.615 34.6736 179.62 33.8339C179.614 32.998 179.766 32.1685 180.068 31.3886C180.351 30.6557 180.768 29.9817 181.299 29.4014C181.828 28.8315 182.471 28.3777 183.186 28.0686C183.947 27.741 184.767 27.572 185.595 27.572C186.424 27.572 187.244 27.741 188.005 28.0686C188.727 28.3923 189.378 28.8548 189.92 29.4296C190.462 30.0045 190.885 30.6803 191.164 31.4183C191.466 32.2004 191.618 33.0318 191.612 33.8696M193.404 33.828C193.409 32.7987 193.221 31.7776 192.848 30.8174C192.49 29.8906 191.955 29.0419 191.272 28.3185C190.575 27.5952 189.74 27.0169 188.817 26.6169C187.811 26.1966 186.731 25.9802 185.64 25.9802C184.549 25.9802 183.469 26.1966 182.463 26.6169C181.532 27.0185 180.692 27.6057 179.997 28.3423C179.312 29.0723 178.771 29.924 178.402 30.8531C178.025 31.81 177.835 32.8297 177.841 33.8577C177.835 34.887 178.024 35.9082 178.396 36.8683C178.754 37.7951 179.29 38.6438 179.973 39.3672C180.67 40.0905 181.504 40.6688 182.427 41.0688C183.434 41.4871 184.514 41.7025 185.604 41.7025C186.695 41.7025 187.775 41.4871 188.782 41.0688C189.712 40.6628 190.551 40.0739 191.248 39.3374C191.933 38.6109 192.472 37.7607 192.837 36.8326C193.218 35.8747 193.411 34.8526 193.404 33.822M172.323 41.4496H174.043V26.2539H172.323V41.4496ZM169.008 41.4496L163.144 33.6673L168.787 26.242H166.781L162.14 32.4536L157.452 26.242H155.422L161.071 33.6911L155.207 41.4258H157.19L162.075 34.8811L166.96 41.4258L169.008 41.4496ZM152.776 26.2539H141.746V41.4615H152.896V39.8967H143.466V34.5717H151.827V33.0069H143.466V27.8187H152.776V26.2539ZM135.75 38.439L126.135 26.2539H124.523V41.4615H126.201V28.967L136.055 41.4615H137.428V26.2539H135.75V38.439ZM118.527 38.439L108.912 26.2539H107.294V41.4615H108.972V28.967L118.831 41.4615H120.205V26.2539H118.527V38.439ZM101.865 33.8756C101.871 34.7115 101.719 35.541 101.417 36.3209C101.139 37.0561 100.722 37.7309 100.187 38.3081C99.6572 38.8792 99.0147 39.335 98.2997 39.6468C97.5461 39.9729 96.7325 40.139 95.9109 40.1347C95.088 40.1399 94.2734 39.9695 93.5221 39.6349C92.8059 39.3109 92.1591 38.8523 91.6171 38.2843C91.0717 37.7085 90.6455 37.0312 90.3629 36.2912C90.0615 35.507 89.9096 34.6736 89.915 33.8339C89.9091 32.998 90.061 32.1685 90.3629 31.3886C90.6453 30.6557 91.0625 29.9817 91.5932 29.4014C92.1227 28.8315 92.7653 28.3777 93.4803 28.0686C94.2411 27.741 95.0612 27.572 95.89 27.572C96.7189 27.572 97.5389 27.741 98.2997 28.0686C99.0169 28.3911 99.664 28.8499 100.205 29.4192C100.754 29.9942 101.181 30.6743 101.459 31.4183C101.76 32.2004 101.912 33.0318 101.907 33.8696M103.698 33.828C103.703 32.7987 103.515 31.7776 103.143 30.8174C102.783 29.8902 102.245 29.0416 101.56 28.3185C100.864 27.5939 100.03 27.0153 99.1059 26.6169C98.0998 26.1966 97.0198 25.9802 95.9288 25.9802C94.8379 25.9802 93.7579 26.1966 92.7517 26.6169C91.8211 27.0201 90.982 27.6071 90.2853 28.3423C89.6004 29.071 89.0613 29.9232 88.6967 30.8531C88.3179 31.8097 88.1253 32.8294 88.1294 33.8577C88.1238 34.887 88.3122 35.9082 88.6848 36.8683C89.0428 37.7965 89.5806 38.6456 90.2674 39.3672C90.9613 40.0916 91.7939 40.6702 92.7159 41.0688C93.7236 41.4869 94.8044 41.7022 95.896 41.7022C96.9876 41.7022 98.0684 41.4869 99.0761 41.0688C100.004 40.6612 100.841 40.0725 101.537 39.3374C102.223 38.6111 102.764 37.761 103.131 36.8326C103.51 35.874 103.703 34.8523 103.698 33.822M86.2303 39.034L85.0956 37.9273C84.4384 38.572 83.6899 39.1172 82.874 39.5457C82.0328 39.9562 81.1052 40.1602 80.1687 40.1407C79.3624 40.1463 78.5642 39.98 77.8277 39.6528C77.1198 39.3346 76.4824 38.8796 75.9525 38.3141C75.3929 37.731 74.9546 37.0435 74.6625 36.2912C74.3599 35.5011 74.208 34.6617 74.2146 33.8161C74.207 32.9742 74.359 32.1385 74.6625 31.3529C74.9446 30.6153 75.3663 29.9387 75.9047 29.3597C76.4339 28.7978 77.0718 28.3485 77.7799 28.0389C78.5168 27.7135 79.315 27.5492 80.121 27.5569C81.0541 27.5329 81.9788 27.7372 82.8143 28.1519C83.579 28.5561 84.286 29.0604 84.9165 29.6512L86.1109 28.3899C85.7357 28.0341 85.3366 27.7041 84.9165 27.4022C84.5117 27.1083 84.0774 26.8571 83.6205 26.6526C83.1182 26.4396 82.5962 26.2762 82.0619 26.1647C81.4401 26.045 80.8079 25.9872 80.1747 25.9922C79.1113 25.9745 78.0559 26.1771 77.0752 26.5871C76.1545 26.9824 75.3237 27.5592 74.6327 28.2828C73.9443 29.0112 73.4012 29.8632 73.0322 30.7936C72.6382 31.7654 72.4354 32.8037 72.435 33.8518C72.4344 34.9096 72.6371 35.9578 73.0322 36.9397C73.4003 37.8634 73.9438 38.7078 74.6327 39.4267C75.3438 40.1544 76.1959 40.7306 77.1372 41.1202C78.0786 41.5099 79.0897 41.7049 80.109 41.6935C80.7475 41.6999 81.3846 41.6341 82.0081 41.4972C82.5559 41.3752 83.0886 41.1937 83.5967 40.9558C84.0858 40.726 84.5501 40.4469 84.9822 40.1228C85.4203 39.7882 85.8316 39.4202 86.2124 39.0221" fill="white"/>
<path d="M210.084 15.3371V15.2835C210.101 14.5681 209.969 13.857 209.696 13.1952C209.435 12.607 209.045 12.0846 208.555 11.6661C207.994 11.2035 207.366 10.8284 206.692 10.5535C205.874 10.2189 205.034 9.94063 204.177 9.72052C203.377 9.51227 202.72 9.32189 202.195 9.16719C201.765 9.04605 201.35 8.87637 200.958 8.66146C200.7 8.5226 200.483 8.31713 200.331 8.06649C200.212 7.82224 200.152 7.55293 200.158 7.28112V7.22757C200.158 7.00249 200.212 6.78069 200.316 6.58085C200.42 6.381 200.571 6.20898 200.755 6.07927C201.285 5.73227 201.915 5.56913 202.547 5.61519C203.368 5.61928 204.18 5.78509 204.936 6.10308C205.796 6.46405 206.617 6.91267 207.384 7.44177L209.51 4.36574C207.555 2.79123 205.108 1.94913 202.595 1.98584C201.701 1.97534 200.811 2.10999 199.961 2.38449C199.206 2.62401 198.506 3.01025 197.901 3.52089C197.328 4.01187 196.87 4.62089 196.557 5.30581C196.23 6.02495 196.067 6.80715 196.079 7.59645V7.65C196.053 8.44008 196.202 9.22618 196.515 9.95256C196.799 10.5615 197.225 11.094 197.757 11.5054C198.348 11.9497 199.002 12.3027 199.698 12.5526C200.534 12.8549 201.385 13.1111 202.248 13.3201C202.892 13.4748 203.528 13.6614 204.154 13.8794C204.553 14.0125 204.935 14.1902 205.294 14.4089C205.529 14.5428 205.724 14.7383 205.856 14.9742C205.955 15.1948 206.004 15.4345 205.999 15.6762V15.7298C206.006 15.9869 205.944 16.2412 205.82 16.4669C205.696 16.6926 205.515 16.8817 205.294 17.0149C204.692 17.3574 204.004 17.5186 203.311 17.479C202.301 17.4933 201.298 17.2904 200.373 16.884C199.435 16.4498 198.556 15.8979 197.757 15.2419L195.333 18.1275C196.414 19.1128 197.681 19.8751 199.059 20.3706C200.401 20.8503 201.815 21.0959 203.24 21.0964C204.176 21.1062 205.108 20.9758 206.005 20.7097C206.789 20.4813 207.521 20.1035 208.161 19.5971C208.763 19.1193 209.246 18.5082 209.57 17.8122C209.921 17.0433 210.095 16.2055 210.078 15.3609M192.442 12.7668V2.27738H188.346V12.9036C188.437 14.1122 188.054 15.3089 187.277 16.2414C186.891 16.6232 186.429 16.9196 185.921 17.1113C185.412 17.3031 184.869 17.3858 184.326 17.3541C183.78 17.3839 183.234 17.2962 182.725 17.097C182.216 16.8979 181.756 16.5919 181.376 16.1998C180.664 15.4303 180.307 14.286 180.307 12.7668V2.27738H176.216V12.8739C176.216 15.6167 176.933 17.6694 178.366 19.0497C179.8 20.4301 181.776 21.1143 184.273 21.1143C185.42 21.131 186.562 20.9581 187.653 20.6026C188.62 20.2819 189.503 19.7469 190.233 19.0378C190.966 18.2991 191.525 17.4069 191.869 16.4259C192.283 15.2425 192.485 13.996 192.466 12.743M169.08 15.2359C169.099 15.5351 169.038 15.8341 168.903 16.1019C168.767 16.3696 168.562 16.5965 168.31 16.7591C167.661 17.1184 166.924 17.2875 166.184 17.2469H161.316V13.1654H166.034C166.842 13.1018 167.65 13.2911 168.345 13.7069C168.574 13.8779 168.759 14.1011 168.884 14.3578C169.008 14.6145 169.07 14.8973 169.062 15.1824L169.08 15.2359ZM168.047 7.81661C168.067 8.11517 168.003 8.41336 167.861 8.67733C167.72 8.9413 167.507 9.16048 167.247 9.30998C166.581 9.65037 165.838 9.81042 165.091 9.77406H161.316V5.85318H165.359C166.059 5.8081 166.755 5.97844 167.354 6.34106C167.581 6.5005 167.763 6.71452 167.884 6.96318C168.005 7.21184 168.061 7.48702 168.047 7.76304V7.81661ZM173.153 15.7357V15.6822C173.216 14.6343 172.884 13.6008 172.221 12.7846C171.52 12.0299 170.641 11.4597 169.665 11.1247C170.004 10.9507 170.321 10.737 170.609 10.488C170.904 10.2373 171.165 9.94931 171.385 9.63127C171.613 9.29087 171.792 8.92037 171.917 8.53057C172.055 8.07548 172.121 7.60182 172.114 7.12643V7.07289C172.14 6.40218 172.005 5.73498 171.72 5.12658C171.435 4.51819 171.01 3.98612 170.477 3.57443C169.39 2.70577 167.886 2.27738 165.969 2.27738H157.309V20.8227H166.166C167.128 20.8341 168.089 20.7282 169.026 20.5074C169.813 20.3263 170.56 20.0037 171.23 19.5554C171.826 19.1501 172.311 18.6018 172.639 17.9609C172.982 17.2697 173.152 16.5064 173.135 15.7357M152.83 20.8227V2.27738H148.417L143.526 10.1132L138.635 2.27144H134.215V20.8227H138.235V8.79236L143.418 16.6579H143.526L148.769 8.73286V20.8227H152.83ZM126.285 11.6006C126.29 12.3675 126.15 13.1284 125.873 13.8437C125.609 14.5224 125.22 15.1459 124.726 15.6822C124.225 16.2211 123.614 16.6471 122.934 16.9316C122.221 17.2332 121.452 17.3852 120.677 17.3778C119.894 17.3887 119.117 17.2304 118.402 16.9138C117.727 16.6176 117.118 16.1909 116.61 15.6584C116.093 15.1238 115.687 14.493 115.416 13.8021C115.139 13.0825 114.999 12.3177 115.003 11.5471V11.4995C114.998 10.7326 115.137 9.97154 115.416 9.25644C115.679 8.57775 116.068 7.95421 116.562 7.41797C117.051 6.8815 117.65 6.45548 118.318 6.16852C119.037 5.86345 119.812 5.71146 120.593 5.72228C121.37 5.71494 122.14 5.87317 122.851 6.18636C123.532 6.47996 124.147 6.9066 124.66 7.44106C125.173 7.97552 125.573 8.60696 125.837 9.29809C126.113 10.0157 126.253 10.7784 126.249 11.5471L126.285 11.6006ZM130.567 11.5471V11.4995C130.575 10.222 130.328 8.95564 129.838 7.77495C129.372 6.64466 128.684 5.6189 127.813 4.75843C126.91 3.88641 125.848 3.19382 124.684 2.71767C122.135 1.70902 119.296 1.70902 116.747 2.71767C115.584 3.18531 114.525 3.87836 113.632 4.75669C112.739 5.63501 112.03 6.68115 111.546 7.83446C111.045 9.01035 110.791 10.2758 110.799 11.553V11.6066C110.789 12.8848 111.039 14.1517 111.534 15.3311C112.003 16.4667 112.7 17.4951 113.582 18.3536C114.484 19.2254 115.544 19.9181 116.705 20.3944C117.963 20.9091 119.312 21.1661 120.671 21.15C122.034 21.1645 123.386 20.9076 124.648 20.3944C125.81 19.9252 126.868 19.2315 127.759 18.3533C128.651 17.4752 129.36 16.4298 129.844 15.2776C130.348 14.1006 130.602 12.8326 130.59 11.553M107.138 20.8227V2.27738H103.042V9.61342H95.487V2.27738H91.3842V20.8227H95.481V13.3796H103.036V20.8227H107.138ZM83.543 8.66146C83.558 9.01986 83.493 9.37713 83.3525 9.70742C83.2121 10.0377 82.9997 10.3328 82.7308 10.5713C82.0697 11.088 81.24 11.3424 80.4017 11.2853H76.2213V5.93053H80.2942C81.1425 5.87549 81.9845 6.10826 82.683 6.59094C82.9727 6.8315 83.2011 7.13699 83.3495 7.48239C83.498 7.82778 83.5622 8.20329 83.537 8.57817L83.543 8.66146ZM88.2489 20.8227L83.7042 14.2007C84.8449 13.7938 85.8455 13.0715 86.5887 12.1183C87.3621 11.0538 87.7514 9.76007 87.6935 8.44728V8.39372C87.7399 7.55314 87.5978 6.71283 87.2776 5.93378C86.9574 5.15473 86.467 4.4565 85.8422 3.88977C84.612 2.81485 82.888 2.27738 80.6704 2.27738H72.1544V20.8227H76.2512V14.873H79.4701L83.4653 20.8227H88.2489Z" fill="white"/>
<path d="M59.6127 0.92041V42.7531H60.7415V0.92041" fill="white"/>
<path d="M49.5324 17.7107C49.3036 17.3543 49.0374 17.0232 48.7381 16.7231L34.3336 2.34253L27.2568 9.39892L36.5672 18.6924C36.997 19.0916 37.3398 19.5747 37.5742 20.1116C37.8086 20.6484 37.9296 21.2276 37.9296 21.8131C37.9296 22.3985 37.8086 22.9777 37.5742 23.5146C37.3398 24.0515 36.997 24.5345 36.5672 24.9337L27.2568 34.2272L34.3336 41.2836L48.7381 26.9031C49.0374 26.6029 49.3036 26.2718 49.5324 25.9154C50.4004 24.7073 50.9282 23.2899 51.0612 21.8101C50.9374 20.3301 50.4086 18.9122 49.5324 17.7107Z" fill="white"/>
<path d="M2.4491 25.9154C2.67922 26.2727 2.94536 26.6056 3.24338 26.909L17.6478 41.2836L24.7247 34.2272L15.4143 24.9337C14.9844 24.5345 14.6416 24.0515 14.4072 23.5146C14.1729 22.9777 14.0519 22.3985 14.0519 21.8131C14.0519 21.2276 14.1729 20.6484 14.4072 20.1116C14.6416 19.5747 14.9844 19.0916 15.4143 18.6924L24.7247 9.39892L17.6478 2.34253L3.24338 16.7231C2.94258 17.024 2.6762 17.3573 2.4491 17.7167C1.58211 18.9231 1.05431 20.3383 0.920265 21.8161C1.04316 23.2963 1.57203 24.7144 2.4491 25.9154Z" fill="white"/>
</g>
<defs>
<clipPath id="clip0_1_17">
<rect width="209.163" height="41.8327" fill="white" transform="translate(0.920357 0.920166)"/>
</clipPath>
</defs>
</svg>
