<svg width="24" height="40" viewBox="0 0 24 40" fill="none" xmlns="http://www.w3.org/2000/svg">
<path d="M1.5349 24.0952C1.76594 24.4539 2.03314 24.7881 2.33235 25.0928L16.7944 39.5248L23.8996 32.4402L14.552 23.1095C14.1204 22.7088 13.7762 22.2238 13.5409 21.6847C13.3055 21.1457 13.1841 20.5642 13.1841 19.9764C13.1841 19.3886 13.3055 18.8071 13.5409 18.2681C13.7762 17.7291 14.1204 17.2441 14.552 16.8433L23.8996 7.5126L16.7944 0.427979L2.33235 14.866C2.03035 15.1682 1.7629 15.5028 1.5349 15.8636C0.66444 17.0749 0.134524 18.4958 -5.34058e-05 19.9794C0.123332 21.4655 0.654322 22.8893 1.5349 24.0952Z" fill="white"/>
</svg>
