<svg width="17" height="16" viewBox="0 0 17 16" fill="none" xmlns="http://www.w3.org/2000/svg">
<g clip-path="url(#clip0_360_98)">
<path d="M5.07959 6H2.07959V3H5.07959V6ZM9.07959 6H6.07959V3H9.07959V6ZM8.07959 4H7.07959V5H8.07959V4ZM13.0796 6H10.0796V3H13.0796V6ZM12.0796 4H11.0796V5H12.0796V4ZM11.0796 10C11.0796 9.85938 11.1056 9.72917 11.1577 9.60938C11.2098 9.48958 11.2801 9.38542 11.3687 9.29688C11.4572 9.20833 11.564 9.13542 11.689 9.07812C11.814 9.02083 11.9442 8.99479 12.0796 9C12.2202 9 12.3504 9.02604 12.4702 9.07812C12.59 9.13021 12.6942 9.20052 12.7827 9.28906C12.8713 9.3776 12.9442 9.48438 13.0015 9.60938C13.0588 9.73438 13.0848 9.86458 13.0796 10C13.0796 10.1406 13.0535 10.2708 13.0015 10.3906C12.9494 10.5104 12.8791 10.6146 12.7905 10.7031C12.702 10.7917 12.5952 10.8646 12.4702 10.9219C12.3452 10.9792 12.215 11.0052 12.0796 11C11.939 11 11.8088 10.974 11.689 10.9219C11.5692 10.8698 11.465 10.7995 11.3765 10.7109C11.2879 10.6224 11.215 10.5156 11.1577 10.3906C11.1004 10.2656 11.0744 10.1354 11.0796 10ZM2.07959 10C2.07959 9.85938 2.10563 9.72917 2.15771 9.60938C2.2098 9.48958 2.28011 9.38542 2.36865 9.29688C2.45719 9.20833 2.56396 9.13542 2.68896 9.07812C2.81396 9.02083 2.94417 8.99479 3.07959 9C3.22021 9 3.35042 9.02604 3.47021 9.07812C3.59001 9.13021 3.69417 9.20052 3.78271 9.28906C3.87126 9.3776 3.94417 9.48438 4.00146 9.60938C4.05876 9.73438 4.0848 9.86458 4.07959 10C4.07959 10.1406 4.05355 10.2708 4.00146 10.3906C3.94938 10.5104 3.87907 10.6146 3.79053 10.7031C3.70199 10.7917 3.59521 10.8646 3.47021 10.9219C3.34521 10.9792 3.21501 11.0052 3.07959 11C2.93896 11 2.80876 10.974 2.68896 10.9219C2.56917 10.8698 2.46501 10.7995 2.37646 10.7109C2.28792 10.6224 2.21501 10.5156 2.15771 10.3906C2.10042 10.2656 2.07438 10.1354 2.07959 10ZM5.07959 10C5.07959 9.85938 5.10563 9.72917 5.15771 9.60938C5.2098 9.48958 5.28011 9.38542 5.36865 9.29688C5.45719 9.20833 5.56396 9.13542 5.68896 9.07812C5.81396 9.02083 5.94417 8.99479 6.07959 9C6.22021 9 6.35042 9.02604 6.47021 9.07812C6.59001 9.13021 6.69417 9.20052 6.78271 9.28906C6.87126 9.3776 6.94417 9.48438 7.00146 9.60938C7.05876 9.73438 7.0848 9.86458 7.07959 10C7.07959 10.1406 7.05355 10.2708 7.00146 10.3906C6.94938 10.5104 6.87907 10.6146 6.79053 10.7031C6.70199 10.7917 6.59521 10.8646 6.47021 10.9219C6.34521 10.9792 6.21501 11.0052 6.07959 11C5.93896 11 5.80876 10.974 5.68896 10.9219C5.56917 10.8698 5.46501 10.7995 5.37646 10.7109C5.28792 10.6224 5.21501 10.5156 5.15771 10.3906C5.10042 10.2656 5.07438 10.1354 5.07959 10ZM10.0796 10C10.0796 10.1406 10.0535 10.2708 10.0015 10.3906C9.94938 10.5104 9.87907 10.6146 9.79053 10.7031C9.70199 10.7917 9.59521 10.8646 9.47021 10.9219C9.34521 10.9792 9.21501 11.0052 9.07959 11C8.93896 11 8.80876 10.974 8.68896 10.9219C8.56917 10.8698 8.46501 10.7995 8.37646 10.7109C8.28792 10.6224 8.21501 10.5156 8.15771 10.3906C8.10042 10.2656 8.07438 10.1354 8.07959 10C8.07959 9.85938 8.10563 9.72917 8.15771 9.60938C8.2098 9.48958 8.28011 9.38542 8.36865 9.29688C8.45719 9.20833 8.56396 9.13542 8.68896 9.07812C8.81396 9.02083 8.94417 8.99479 9.07959 9C9.22021 9 9.35042 9.02604 9.47021 9.07812C9.59001 9.13021 9.69417 9.20052 9.78271 9.28906C9.87126 9.3776 9.94417 9.48438 10.0015 9.60938C10.0588 9.73438 10.0848 9.86458 10.0796 10ZM1.07959 10C1.07959 10.276 1.13167 10.5339 1.23584 10.7734C1.34001 11.013 1.48324 11.2266 1.66553 11.4141C1.84782 11.6016 2.05876 11.7448 2.29834 11.8438C2.53792 11.9427 2.79834 11.9948 3.07959 12H8.07959V13H3.07959C2.66813 13 2.28011 12.9219 1.91553 12.7656C1.55094 12.6094 1.23324 12.3932 0.962402 12.1172C0.691569 11.8411 0.478027 11.5234 0.321777 11.1641C0.165527 10.8047 0.0847982 10.4167 0.0795898 10C0.0795898 9.58854 0.157715 9.20052 0.313965 8.83594C0.470215 8.47135 0.686361 8.15365 0.962402 7.88281C1.23844 7.61198 1.55615 7.39844 1.91553 7.24219C2.2749 7.08594 2.66292 7.00521 3.07959 7H12.0796C12.4494 7 12.8009 7.0651 13.1343 7.19531C13.4676 7.32552 13.7645 7.5026 14.0249 7.72656C14.2853 7.95052 14.5041 8.21875 14.6812 8.53125C14.8582 8.84375 14.9754 9.18229 15.0327 9.54688L13.978 10.6016C14.0093 10.5026 14.0327 10.4036 14.0483 10.3047C14.064 10.2057 14.0744 10.1042 14.0796 10C14.0796 9.72396 14.0275 9.46615 13.9233 9.22656C13.8192 8.98698 13.6759 8.77344 13.4937 8.58594C13.3114 8.39844 13.1004 8.25521 12.8608 8.15625C12.6213 8.05729 12.3608 8.00521 12.0796 8H3.07959C2.80355 8 2.54574 8.05208 2.30615 8.15625C2.06657 8.26042 1.85303 8.40365 1.66553 8.58594C1.47803 8.76823 1.3348 8.97917 1.23584 9.21875C1.13688 9.45833 1.0848 9.71875 1.07959 10ZM15.9312 11.3516L11.5796 15.7109L9.47803 13.6016L10.1812 12.8984L11.5796 14.2891L15.228 10.6484L15.9312 11.3516Z" fill="white"/>
</g>
<defs>
<clipPath id="clip0_360_98">
<rect width="16" height="16" fill="white" transform="translate(0.0795898)"/>
</clipPath>
</defs>
</svg>
