<svg width="17" height="16" viewBox="0 0 17 16" fill="none" xmlns="http://www.w3.org/2000/svg">
<path d="M3.70626 5.30659L4.05292 4.95325C4.43959 4.56659 5.07959 4.56659 5.47959 4.97992L5.49292 4.99992C5.81959 5.33325 6.25292 5.49325 6.72626 5.53992C7.37292 5.59992 7.99959 5.94659 8.41292 6.57325C8.86626 7.29325 8.85959 8.25325 8.38626 8.96659C8.20773 9.24891 7.96765 9.48719 7.68399 9.66359C7.40033 9.83999 7.08044 9.94994 6.74828 9.9852C6.41611 10.0205 6.08027 9.98015 5.76589 9.86725C5.45152 9.75434 5.16676 9.57179 4.93292 9.33325C4.55959 8.96659 4.34626 8.49325 4.29292 7.99992C4.23959 7.51325 4.04626 7.05325 3.70626 6.71325C3.31959 6.33325 3.31959 5.69325 3.70626 5.30659ZM6.50626 10.6666C5.72626 10.6666 4.99959 10.3666 4.45959 9.81325C3.99292 9.33325 3.69959 8.73325 3.62626 8.07992C3.60626 7.87992 3.54626 7.61992 3.38626 7.37992C2.98626 7.93325 2.74626 8.59992 2.74626 9.33325C2.74626 10.4266 3.27959 11.3933 4.09959 11.9999H12.7463V11.3333C12.7463 8.93325 11.1529 6.89992 8.97292 6.23325C9.56626 7.16659 9.55292 8.41325 8.94626 9.33325C8.41292 10.1666 7.49292 10.6666 6.50626 10.6666ZM9.93292 5.03992H10.7796C11.3596 5.03992 11.8663 5.44659 11.8663 6.17325V6.66659H12.6996V5.99992C12.6996 4.99992 11.8129 4.23992 10.7796 4.23992H9.93292C9.37959 4.23992 8.90626 3.69325 8.90626 3.13325C8.90626 2.57325 9.37959 2.15992 9.93292 2.15992V1.33325C8.90626 1.33325 8.07959 2.15992 8.07959 3.18659C8.07959 4.21325 8.90626 5.03992 9.93292 5.03992ZM3.07959 5.03325C3.11959 4.96659 3.17292 4.89992 3.23292 4.83325L3.57959 4.48659C3.63959 4.42659 3.70626 4.37992 3.77292 4.33325L2.83292 3.37992C2.92626 3.19992 2.89292 2.96659 2.74626 2.81325C2.65079 2.72032 2.52282 2.66832 2.38959 2.66832C2.25636 2.66832 2.12839 2.72032 2.03292 2.81325C1.93959 2.90659 1.89292 3.01992 1.88626 3.13992C1.76626 3.14659 1.65292 3.19325 1.55959 3.28659C1.36626 3.47992 1.36626 3.79992 1.55959 3.99992C1.71292 4.14659 1.93959 4.17992 2.12626 4.08659L3.07959 5.03325ZM12.3396 2.92659C12.6796 2.58659 12.8929 2.12659 12.8929 1.61325H12.0596C12.0596 2.16659 11.5929 2.63325 11.0396 2.63325V3.45992C12.2796 3.45992 13.2529 4.47325 13.2529 5.71325V7.33325H14.0796V5.71325C14.0829 5.13172 13.9212 4.56119 13.6132 4.06791C13.3052 3.57464 12.8636 3.17887 12.3396 2.92659ZM3.41292 13.9999H12.7463C13.4863 13.9999 14.0796 13.4066 14.0796 12.6666H2.07959C2.07959 13.0202 2.22006 13.3593 2.47011 13.6094C2.72016 13.8594 3.0593 13.9999 3.41292 13.9999Z" fill="white"/>
</svg>
