<svg width="17" height="16" viewBox="0 0 17 16" fill="none" xmlns="http://www.w3.org/2000/svg">
<path fill-rule="evenodd" clip-rule="evenodd" d="M2.57959 1.04492C2.44698 1.04492 2.3198 1.0976 2.22604 1.19137C2.13227 1.28514 2.07959 1.41231 2.07959 1.54492V12.4549C2.07959 12.5875 2.13227 12.7147 2.22604 12.8085C2.3198 12.9022 2.44698 12.9549 2.57959 12.9549H11.5796C11.7122 12.9549 11.8394 12.9022 11.9331 12.8085C12.0269 12.7147 12.0796 12.5875 12.0796 12.4549V5.36392C12.0797 5.29678 12.0663 5.23031 12.0402 5.16846C12.0141 5.10661 11.9758 5.05065 11.9276 5.00392L7.99059 1.18792C7.89747 1.09713 7.77264 1.0462 7.64259 1.04592L2.57959 1.04492ZM10.3456 4.86392L8.14259 2.72692V4.86392H10.3456ZM6.07959 5.49992H4.07959V4.49992H6.07959V5.49992ZM10.0796 7.99992H4.07959V6.99992H10.0796V7.99992ZM4.07959 10.4999H10.0796V9.49992H4.07959V10.4999Z" fill="white"/>
<path d="M13.0796 7.5V14H4.57959V15H13.5796C13.7122 15 13.8394 14.9473 13.9331 14.8536C14.0269 14.7598 14.0796 14.6326 14.0796 14.5V7.5H13.0796Z" fill="white"/>
</svg>
