<svg width="17" height="16" viewBox="0 0 17 16" fill="none" xmlns="http://www.w3.org/2000/svg">
<path fill-rule="evenodd" clip-rule="evenodd" d="M8.07959 2C8.17946 2.00006 8.27803 2.02256 8.36804 2.06583C8.45804 2.1091 8.53717 2.17204 8.59959 2.25L11.2663 5.58333C11.3242 5.65124 11.368 5.73011 11.3949 5.81526C11.4218 5.9004 11.4314 5.99009 11.423 6.07899C11.4146 6.1679 11.3884 6.25421 11.346 6.3328C11.3036 6.41139 11.2458 6.48066 11.1761 6.5365C11.1065 6.59234 11.0263 6.63361 10.9403 6.65786C10.8544 6.68211 10.7644 6.68885 10.6758 6.67767C10.5872 6.66649 10.5018 6.63763 10.4246 6.59279C10.3473 6.54796 10.2799 6.48806 10.2263 6.41667L8.74626 4.56667V9.33333C8.74626 9.51014 8.67602 9.67971 8.55099 9.80474C8.42597 9.92976 8.2564 10 8.07959 10C7.90278 10 7.73321 9.92976 7.60819 9.80474C7.48316 9.67971 7.41292 9.51014 7.41292 9.33333V4.56667L5.93292 6.41733C5.87929 6.48873 5.81185 6.54863 5.73462 6.59346C5.65739 6.6383 5.57195 6.66716 5.48335 6.67834C5.39475 6.68951 5.30481 6.68278 5.21887 6.65853C5.13292 6.63427 5.05272 6.59301 4.98304 6.53717C4.91335 6.48133 4.85559 6.41205 4.81319 6.33346C4.77078 6.25487 4.7446 6.16856 4.7362 6.07966C4.72779 5.99076 4.73734 5.90107 4.76426 5.81592C4.79118 5.73078 4.83493 5.65191 4.89292 5.584L7.55959 2.25067C7.62194 2.17259 7.70104 2.10952 7.79105 2.06613C7.88106 2.02274 7.97967 2.00014 8.07959 2ZM6.07959 9.33333V8.66667H3.41292C3.0593 8.66667 2.72016 8.80714 2.47011 9.05719C2.22007 9.30724 2.07959 9.64638 2.07959 10V12.6667C2.07959 13.0203 2.22007 13.3594 2.47011 13.6095C2.72016 13.8595 3.0593 14 3.41292 14H12.7463C13.0999 14 13.439 13.8595 13.6891 13.6095C13.9391 13.3594 14.0796 13.0203 14.0796 12.6667V10C14.0796 9.64638 13.9391 9.30724 13.6891 9.05719C13.439 8.80714 13.0999 8.66667 12.7463 8.66667H10.0796V9.33333C10.0796 9.86377 9.86888 10.3725 9.4938 10.7475C9.11873 11.1226 8.61002 11.3333 8.07959 11.3333C7.54916 11.3333 7.04045 11.1226 6.66538 10.7475C6.2903 10.3725 6.07959 9.86377 6.07959 9.33333ZM11.4129 10.6667C11.2361 10.6667 11.0665 10.7369 10.9415 10.8619C10.8165 10.987 10.7463 11.1565 10.7463 11.3333C10.7463 11.5101 10.8165 11.6797 10.9415 11.8047C11.0665 11.9298 11.2361 12 11.4129 12H11.4196C11.5964 12 11.766 11.9298 11.891 11.8047C12.016 11.6797 12.0863 11.5101 12.0863 11.3333C12.0863 11.1565 12.016 10.987 11.891 10.8619C11.766 10.7369 11.5964 10.6667 11.4196 10.6667H11.4129Z" fill="white"/>
</svg>
