<svg width="17" height="16" viewBox="0 0 17 16" fill="none" xmlns="http://www.w3.org/2000/svg">
<path d="M1.74626 7.99996C1.74626 5.01463 1.74626 3.52129 2.67359 2.59396C3.60092 1.66663 5.09359 1.66663 8.07959 1.66663C11.0649 1.66663 12.5583 1.66663 13.4856 2.59396C14.4129 3.52129 14.4129 5.01396 14.4129 7.99996C14.4129 10.9853 14.4129 12.4786 13.4856 13.406C12.5583 14.3333 11.0656 14.3333 8.07959 14.3333C5.09426 14.3333 3.60092 14.3333 2.67359 13.406C1.74626 12.4786 1.74626 10.986 1.74626 7.99996Z" stroke="white" stroke-linecap="round" stroke-linejoin="round"/>
<path d="M1.74626 9.66663H2.10559C2.42026 9.66663 2.57759 9.66663 2.71492 9.60063C2.85159 9.53529 2.94959 9.41196 3.14626 9.16596L4.07959 7.99996L5.07959 9.66663L6.07959 7.33329L7.74626 10.6666L10.0796 5.99996L11.4129 8.33329L12.4129 7.33329L13.3763 8.77863C13.5443 9.03063 13.6283 9.15663 13.7509 9.23263C13.7754 9.24774 13.8007 9.26129 13.8269 9.27329C13.9589 9.33329 14.1103 9.33329 14.4129 9.33329M10.0796 1.66663V3.66663M10.0796 14.3333V9.66663" stroke="white" stroke-linecap="round" stroke-linejoin="round"/>
<path d="M10.0796 6.66659C10.4478 6.66659 10.7463 6.36811 10.7463 5.99992C10.7463 5.63173 10.4478 5.33325 10.0796 5.33325C9.7114 5.33325 9.41293 5.63173 9.41293 5.99992C9.41293 6.36811 9.7114 6.66659 10.0796 6.66659Z" stroke="white" stroke-linecap="round" stroke-linejoin="round"/>
</svg>
