<svg width="15" height="13" viewBox="0 0 15 13" fill="none" xmlns="http://www.w3.org/2000/svg">
<path d="M0.740918 12.0564V0H14.2591V12.0564H13.3658V0.919108C13.3658 0.847357 13.3116 0.789169 13.2448 0.789169H1.75521C1.68841 0.789169 1.63424 0.847357 1.63424 0.919108V12.0564H0.740918ZM1.8762 1.79614H13.1238V1.04905H1.8762V1.79614ZM1.8762 2.05602V2.80318H13.1238V2.05602H1.8762ZM0 12.3163V13H15V12.3163H0ZM4.2999 9.47179L3.55576 9.47437V10.1695C3.55576 10.2161 3.53256 10.2592 3.49491 10.2823C3.47628 10.2938 3.45554 10.2995 3.43479 10.2995C3.41361 10.2995 3.39246 10.2935 3.37356 10.2816L3.0881 10.1016L2.8026 10.2816C2.76521 10.3052 2.71893 10.3055 2.68125 10.2823C2.6436 10.2592 2.6204 10.2161 2.6204 10.1695V9.47764L1.8762 9.48019V12.0564H4.2999V9.47179ZM3.14933 9.83885L3.31383 9.94258V9.47519L2.86233 9.47676V9.94258L3.02684 9.83885C3.06463 9.81503 3.11147 9.81503 3.14933 9.83885ZM6.9656 9.46251L6.22143 9.46512V10.1695C6.22143 10.2161 6.19819 10.2592 6.16058 10.2823C6.12293 10.3055 6.07664 10.3052 6.03923 10.2816L5.75376 10.1016L5.46826 10.2816C5.44937 10.2935 5.42821 10.2995 5.40703 10.2995C5.38629 10.2995 5.36555 10.2938 5.34691 10.2823C5.30927 10.2592 5.28606 10.2161 5.28606 10.1695V9.46836L4.54187 9.47094V12.0564H6.9656V9.46251ZM5.81499 9.83885L5.97949 9.94258V9.46594L5.528 9.46751V9.94258L5.69253 9.83885C5.73032 9.81503 5.77717 9.81503 5.81499 9.83885ZM9.63126 9.45326L8.88709 9.45584V10.1695C8.88709 10.2161 8.86389 10.2591 8.82624 10.2823C8.80761 10.2937 8.78687 10.2994 8.76612 10.2994C8.74494 10.2994 8.72379 10.2935 8.70489 10.2816L8.41942 10.1016L8.13393 10.2816C8.09651 10.3052 8.05025 10.3054 8.01258 10.2823C7.97493 10.2591 7.95173 10.2161 7.95173 10.1695V9.45908L7.20753 9.46169V12.0564H9.63126V9.45326ZM8.35816 9.83885C8.39596 9.81503 8.44283 9.81503 8.48062 9.83885L8.64516 9.94258V9.45669L8.19363 9.45826V9.94258L8.35816 9.83885ZM1.8762 6.61663V9.22032L4.2999 9.21191V6.60401L3.55576 6.60788V7.30613C3.55576 7.35271 3.53256 7.39576 3.49491 7.41889C3.47628 7.43034 3.45554 7.43607 3.43479 7.43607C3.41361 7.43607 3.39246 7.43009 3.37356 7.4182L3.0881 7.23822L2.8026 7.4182C2.76521 7.4418 2.71893 7.44205 2.68125 7.41889C2.6436 7.39576 2.6204 7.35271 2.6204 7.30613V6.61276L1.8762 6.61663ZM3.02684 6.97545C3.06466 6.95162 3.11147 6.95162 3.14933 6.97545L3.31383 7.07917V6.60914L2.86233 6.6115V7.07917L3.02684 6.97545ZM6.9656 9.20263V6.5901L6.22143 6.59397V7.30607C6.22143 7.35264 6.19819 7.39569 6.16058 7.41882C6.14194 7.43028 6.1212 7.43601 6.10046 7.43601C6.07928 7.43601 6.05813 7.43003 6.03923 7.41813L5.75376 7.23816L5.46826 7.41813C5.43088 7.44173 5.38459 7.44199 5.34691 7.41882C5.30927 7.39569 5.28606 7.35264 5.28606 7.30607V6.59882L4.54187 6.60272V9.211L6.9656 9.20263ZM5.69253 6.97545C5.73032 6.95162 5.7772 6.95162 5.81499 6.97545L5.97949 7.07917V6.59526L5.528 6.59759V7.07917L5.69253 6.97545Z" fill="white"/>
</svg>
