<svg width="14" height="14" viewBox="0 0 14 14" fill="none" xmlns="http://www.w3.org/2000/svg">
<path d="M11.8634 3.73317H8.73494C9.06456 3.33818 9.26334 2.83029 9.26334 2.27679C9.26334 1.02133 8.242 0 6.98665 0C5.73119 0 4.70985 1.02133 4.70985 2.27679C4.70985 2.83029 4.90863 3.33818 5.23825 3.73317H2.10974L0.164062 14H13.8091L11.8634 3.73317ZM6.98665 0.820312C7.78966 0.820312 8.44302 1.47368 8.44302 2.27679C8.44302 3.0798 7.78966 3.73317 6.98665 3.73317C6.18353 3.73317 5.53017 3.0798 5.53017 2.27679C5.53017 1.47368 6.18353 0.820312 6.98665 0.820312ZM6.12756 10.5131L5.10783 9.06371L4.77042 9.39268V10.5131H4.10135V7.23488H4.77042V8.53467L6.07213 7.23488H7.0032L5.5856 8.60399L6.99124 10.5131H6.12756ZM9.87184 10.0244L9.82079 10.0652C9.61507 10.2291 9.3992 10.3545 9.17917 10.4377C8.95679 10.5218 8.72543 10.5644 8.4912 10.5644C8.17503 10.5644 7.88301 10.4954 7.62314 10.3592C7.35771 10.2202 7.15445 10.0159 7.01891 9.75243C6.88635 9.4949 6.81917 9.20416 6.81917 8.88843C6.81917 8.57654 6.8855 8.28099 7.01624 8.01001C7.15082 7.73112 7.3481 7.5206 7.60252 7.38431C7.85107 7.25111 8.13968 7.18361 8.46043 7.18361C8.69424 7.18361 8.90958 7.22249 9.10056 7.29897C9.29762 7.37801 9.45549 7.49112 9.56967 7.63489C9.68097 7.77513 9.76599 7.95778 9.82249 8.1777L9.85561 8.30695L9.23973 8.47592L9.20213 8.34828C9.16197 8.21178 9.11284 8.10518 9.05634 8.03137C9.0041 7.96312 8.92592 7.90662 8.82402 7.86357C8.71689 7.81828 8.59523 7.79532 8.46246 7.79532C8.29947 7.79532 8.15826 7.81967 8.04291 7.86784C7.92958 7.91527 7.83783 7.97722 7.77032 8.05199C7.69972 8.13039 7.64407 8.21754 7.60498 8.3109C7.53587 8.47891 7.50063 8.66519 7.50063 8.86375C7.50063 9.10889 7.54218 9.3145 7.62421 9.47482C7.70367 9.63023 7.81572 9.74228 7.96686 9.81715C8.12355 9.89491 8.29231 9.93433 8.46866 9.93433C8.62268 9.93433 8.77531 9.90421 8.92239 9.84471C9.0432 9.7959 9.13986 9.74506 9.211 9.69325V9.33372H8.32681V8.70995L9.87184 8.70749V10.0244Z" fill="white"/>
</svg>
