<svg width="17" height="16" viewBox="0 0 17 16" fill="none" xmlns="http://www.w3.org/2000/svg">
<g clip-path="url(#clip0_360_87)">
<path d="M5.67959 6.4001C6.31611 6.4001 6.92656 6.14724 7.37665 5.69715C7.82673 5.24707 8.07959 4.63662 8.07959 4.0001C8.07959 3.36358 7.82673 2.75313 7.37665 2.30304C6.92656 1.85295 6.31611 1.6001 5.67959 1.6001C5.04307 1.6001 4.43262 1.85295 3.98253 2.30304C3.53245 2.75313 3.27959 3.36358 3.27959 4.0001C3.27959 4.63662 3.53245 5.24707 3.98253 5.69715C4.43262 6.14724 5.04307 6.4001 5.67959 6.4001ZM11.6796 7.2001C12.21 7.2001 12.7187 6.98938 13.0938 6.61431C13.4689 6.23924 13.6796 5.73053 13.6796 5.2001C13.6796 4.66966 13.4689 4.16096 13.0938 3.78588C12.7187 3.41081 12.21 3.2001 11.6796 3.2001C11.1492 3.2001 10.6404 3.41081 10.2654 3.78588C9.8903 4.16096 9.67959 4.66966 9.67959 5.2001C9.67959 5.73053 9.8903 6.23924 10.2654 6.61431C10.6404 6.98938 11.1492 7.2001 11.6796 7.2001ZM1.37159 13.1425C1.21447 13.045 1.08826 12.9049 1.00768 12.7385C0.927089 12.5721 0.895431 12.3862 0.91639 12.2025C1.06387 11.0433 1.62899 9.97775 2.50584 9.20539C3.38269 8.43304 4.51109 8.00694 5.67959 8.00694C6.84809 8.00694 7.97649 8.43304 8.85334 9.20539C9.73019 9.97775 10.2953 11.0433 10.4428 12.2025C10.4892 12.5761 10.3052 12.9385 9.98679 13.1417C8.70144 13.9655 7.20629 14.4024 5.67959 14.4001C4.15269 14.4028 2.65725 13.9662 1.37159 13.1425ZM11.6796 12.8001H11.5948C11.6508 12.5625 11.6652 12.3113 11.6332 12.0537C11.4965 10.9539 11.0566 9.91387 10.3628 9.0497C10.8093 8.87378 11.2864 8.7889 11.7662 8.80005C12.2459 8.8112 12.7186 8.91816 13.1564 9.11464C13.5942 9.31111 13.9884 9.59314 14.3156 9.94413C14.6428 10.2951 14.8966 10.708 15.062 11.1585C15.1125 11.3023 15.1114 11.4592 15.0589 11.6023C15.0063 11.7453 14.9056 11.8656 14.774 11.9425C13.8401 12.5053 12.77 12.8019 11.6796 12.8001Z" fill="white"/>
</g>
<defs>
<clipPath id="clip0_360_87">
<rect width="16" height="16" fill="white" transform="translate(0.0795898)"/>
</clipPath>
</defs>
</svg>
